<?xml version="1.0" encoding="UTF-8" standalone="no"?>
<svg
   xmlns:dc="http://purl.org/dc/elements/1.1/"
   xmlns:cc="http://creativecommons.org/ns#"
   xmlns:rdf="http://www.w3.org/1999/02/22-rdf-syntax-ns#"
   xmlns:svg="http://www.w3.org/2000/svg"
   xmlns="http://www.w3.org/2000/svg"
   viewBox="0 0 688.70667 565.34668"
   height="565.34668"
   width="688.70667"
   xml:space="preserve"
   id="svg2"
   version="1.1"><metadata
     id="metadata8"><rdf:RDF><cc:Work
         rdf:about=""><dc:format>image/svg+xml</dc:format><dc:type
           rdf:resource="http://purl.org/dc/dcmitype/StillImage" /></cc:Work></rdf:RDF></metadata><defs
     id="defs6" /><g
     transform="matrix(1.3333333,0,0,-1.3333333,0,565.34667)"
     id="g10"><g
       transform="scale(0.1)"
       id="g12"><path
         id="path14"
         style="fill:#af783c;fill-opacity:1;fill-rule:nonzero;stroke:none"
         d="m 18.9023,321 c 4.7852,-0.66 11.7383,-0.871 19.1211,-0.871 40.6329,0 62.3636,22.601 62.3636,62.152 0.215,34.539 -19.3362,56.481 -59.3167,56.481 -9.7812,0 -17.168,-0.864 -22.168,-1.953 z M 0,450.5 c 11.5195,1.949 25.207,3.262 40.1992,3.262 27.1602,0 46.4961,-6.52 59.3164,-18.25 13.2544,-11.953 20.8594,-28.903 20.8594,-52.59 0,-23.891 -7.605,-43.461 -21.0742,-56.922 C 85.3945,312.309 62.7969,304.91 34.332,304.91 20.6406,304.91 9.5625,305.57 0,306.648 V 450.5" /><path
         id="path16"
         style="fill:#af783c;fill-opacity:1;fill-rule:nonzero;stroke:none"
         d="m 156.914,358.59 c 0,-23.031 13.035,-40.41 31.723,-40.41 18.254,0 31.945,17.16 31.945,40.851 0,17.809 -8.91,40.188 -31.512,40.188 -22.375,0 -32.156,-20.86 -32.156,-40.629 z m 83.219,1.09 c 0,-38.899 -27.16,-55.848 -52.363,-55.848 -28.25,0 -50.411,20.859 -50.411,54.109 0,34.981 23.25,55.629 52.149,55.629 30.203,0 50.625,-21.961 50.625,-53.89" /><path
         id="path18"
         style="fill:#af783c;fill-opacity:1;fill-rule:nonzero;stroke:none"
         d="m 270.371,411.391 14.125,-53.45 c 2.824,-11.742 5.645,-22.601 7.606,-33.472 h 0.648 c 2.391,10.652 5.867,21.953 9.344,33.25 l 17.168,53.672 h 16.074 l 16.301,-52.59 c 3.91,-12.602 6.953,-23.68 9.343,-34.332 h 0.653 c 1.734,10.652 4.562,21.73 8.039,34.121 l 14.992,52.801 H 403.57 L 369.672,306.219 h -17.383 l -16.082,50.203 c -3.691,11.726 -6.734,22.16 -9.344,34.547 h -0.433 c -2.606,-12.61 -5.867,-23.481 -9.559,-34.77 l -16.949,-49.98 h -17.383 l -31.723,105.172 h 19.555" /><path
         id="path20"
         style="fill:#af783c;fill-opacity:1;fill-rule:nonzero;stroke:none"
         d="m 422.73,382.922 c 0,11.09 -0.218,19.777 -0.871,28.469 h 16.946 l 1.09,-17.379 h 0.433 c 5.215,9.769 17.383,19.558 34.766,19.558 14.558,0 37.156,-8.699 37.156,-44.769 v -62.582 h -19.121 v 60.633 c 0,16.937 -6.305,31.07 -24.336,31.07 -12.387,0 -22.168,-8.91 -25.645,-19.563 -0.867,-2.39 -1.296,-5.648 -1.296,-8.91 v -63.23 H 422.73 v 76.703" /><path
         id="path22"
         style="fill:#af783c;fill-opacity:1;fill-rule:nonzero;stroke:none"
         d="m 543.355,460.5 h 19.122 V 306.219 H 543.355 V 460.5" /><path
         id="path24"
         style="fill:#af783c;fill-opacity:1;fill-rule:nonzero;stroke:none"
         d="m 606.594,358.59 c 0,-23.031 13.035,-40.41 31.722,-40.41 18.25,0 31.942,17.16 31.942,40.851 0,17.809 -8.91,40.188 -31.508,40.188 -22.379,0 -32.156,-20.86 -32.156,-40.629 z m 83.215,1.09 c 0,-38.899 -27.157,-55.848 -52.364,-55.848 -28.246,0 -50.41,20.859 -50.41,54.109 0,34.981 23.254,55.629 52.149,55.629 30.207,0 50.625,-21.961 50.625,-53.89" /><path
         id="path26"
         style="fill:#af783c;fill-opacity:1;fill-rule:nonzero;stroke:none"
         d="m 769.371,359.891 c -20.859,0.429 -44.543,-3.262 -44.543,-23.692 0,-12.59 8.254,-18.238 17.813,-18.238 13.906,0 22.82,8.687 25.859,17.598 0.656,2.171 0.871,4.339 0.871,6.082 z m 18.465,-28.461 c 0,-9.129 0.441,-18.039 1.523,-25.211 h -17.168 l -1.515,13.25 h -0.653 c -5.867,-8.25 -17.168,-15.637 -32.156,-15.637 -21.301,0 -32.16,14.988 -32.16,30.207 0,25.41 22.598,39.32 63.231,39.109 v 2.172 c 0,8.469 -2.391,24.34 -23.903,24.121 -9.996,0 -20.207,-2.832 -27.597,-7.832 l -4.348,12.832 c 8.691,5.43 21.515,9.129 34.765,9.129 32.161,0 39.981,-21.961 39.981,-42.82 v -39.32" /><path
         id="path28"
         style="fill:#af783c;fill-opacity:1;fill-rule:nonzero;stroke:none"
         d="m 890.426,368.59 c 0,2.379 -0.215,5.64 -0.871,8.031 -2.821,11.961 -13.25,21.949 -27.59,21.949 -19.774,0 -31.512,-17.39 -31.512,-40.41 0,-21.301 10.652,-38.898 31.074,-38.898 12.825,0 24.551,8.687 28.028,22.808 0.656,2.61 0.871,5.219 0.871,8.262 z m 18.906,91.91 V 333.379 c 0,-9.34 0.434,-19.988 0.867,-27.16 h -16.945 l -0.871,18.25 h -0.649 c -5.656,-11.719 -18.254,-20.637 -35.421,-20.637 -25.418,0 -45.196,21.508 -45.196,53.457 -0.215,34.981 21.731,56.281 47.149,56.281 16.3,0 26.945,-7.609 31.73,-15.871 h 0.43 V 460.5 h 18.906" /><path
         id="path30"
         style="fill:#af783c;fill-opacity:1;fill-rule:nonzero;stroke:none"
         d="m 981.293,306.219 v 11.742 l 14.992,14.551 c 36.065,34.34 52.585,52.59 52.585,73.879 0,14.339 -6.74,27.597 -27.82,27.597 -12.81,0 -23.46,-6.519 -29.98,-11.957 l -6.086,13.481 c 9.563,8.039 23.686,14.34 39.766,14.34 30.42,0 43.24,-20.864 43.24,-41.071 0,-26.07 -18.9,-47.152 -48.67,-75.832 l -11.08,-10.429 v -0.438 h 63.22 v -15.863 h -90.167" /><path
         id="path32"
         style="fill:#af783c;fill-opacity:1;fill-rule:nonzero;stroke:none"
         d="m 1110.17,376.18 c 0,-36.719 11.3,-57.571 28.68,-57.571 19.34,0 28.68,22.813 28.68,58.879 0,34.774 -8.69,57.582 -28.68,57.582 -16.51,0 -28.68,-20.422 -28.68,-58.89 z m 76.7,2.179 c 0,-48.019 -18.04,-74.527 -49.11,-74.527 -27.59,0 -46.5,25.859 -46.93,72.578 0,47.59 20.64,73.442 49.32,73.442 29.55,0 46.72,-26.512 46.72,-71.493" /><path
         id="path34"
         style="fill:#af783c;fill-opacity:1;fill-rule:nonzero;stroke:none"
         d="m 1221.67,376.18 c 0,-36.719 11.29,-57.571 28.68,-57.571 19.33,0 28.68,22.813 28.68,58.879 0,34.774 -8.69,57.582 -28.68,57.582 -16.52,0 -28.68,-20.422 -28.68,-58.89 z m 76.69,2.179 c 0,-48.019 -18.03,-74.527 -49.1,-74.527 -27.59,0 -46.5,25.859 -46.94,72.578 0,47.59 20.64,73.442 49.33,73.442 29.55,0 46.71,-26.512 46.71,-71.493" /><path
         id="path36"
         style="fill:#af783c;fill-opacity:1;fill-rule:nonzero;stroke:none"
         d="m 1309.47,279.281 c 4.78,13.039 10.65,36.289 13.04,52.149 l 21.29,2.179 c -5.21,-18.48 -14.77,-42.597 -20.86,-52.808 l -13.47,-1.52" /><path
         id="path38"
         style="fill:#af783c;fill-opacity:1;fill-rule:nonzero;stroke:none"
         d="m 1378.14,376.18 c 0,-36.719 11.3,-57.571 28.68,-57.571 19.34,0 28.68,22.813 28.68,58.879 0,34.774 -8.69,57.582 -28.68,57.582 -16.51,0 -28.68,-20.422 -28.68,-58.89 z m 76.7,2.179 c 0,-48.019 -18.03,-74.527 -49.1,-74.527 -27.6,0 -46.5,25.859 -46.94,72.578 0,47.59 20.65,73.442 49.33,73.442 29.55,0 46.71,-26.512 46.71,-71.493" /><path
         id="path40"
         style="fill:#af783c;fill-opacity:1;fill-rule:nonzero;stroke:none"
         d="m 1489.63,376.18 c 0,-36.719 11.3,-57.571 28.69,-57.571 19.34,0 28.68,22.813 28.68,58.879 0,34.774 -8.69,57.582 -28.68,57.582 -16.52,0 -28.69,-20.422 -28.69,-58.89 z m 76.71,2.179 c 0,-48.019 -18.03,-74.527 -49.11,-74.527 -27.6,0 -46.5,25.859 -46.93,72.578 0,47.59 20.64,73.442 49.32,73.442 29.55,0 46.72,-26.512 46.72,-71.493" /><path
         id="path42"
         style="fill:#af783c;fill-opacity:1;fill-rule:nonzero;stroke:none"
         d="m 1601.13,376.18 c 0,-36.719 11.3,-57.571 28.68,-57.571 19.35,0 28.68,22.813 28.68,58.879 0,34.774 -8.69,57.582 -28.68,57.582 -16.51,0 -28.68,-20.422 -28.68,-58.89 z m 76.7,2.179 c 0,-48.019 -18.03,-74.527 -49.1,-74.527 -27.6,0 -46.5,25.859 -46.94,72.578 0,47.59 20.65,73.442 49.33,73.442 29.55,0 46.71,-26.512 46.71,-71.493" /><path
         id="path44"
         style="fill:#af783c;fill-opacity:1;fill-rule:nonzero;stroke:none"
         d="m 1757.16,421.82 v -51.07 h 49.11 v -13.031 h -49.11 v -51.5 h -13.9 v 51.5 h -49.1 v 13.031 h 49.1 v 51.07 h 13.9" /><path
         id="path46"
         style="fill:#af783c;fill-opacity:1;fill-rule:nonzero;stroke:none"
         d="m 1895.83,348.371 c 0,-2.379 0.23,-4.769 0.88,-6.949 3.48,-13.25 14.77,-22.383 28.68,-22.383 20.21,0 31.94,16.301 31.94,40.41 0,21.09 -10.86,39.121 -31.5,39.121 -12.83,0 -25,-9.121 -28.9,-23.468 -0.66,-2.391 -1.1,-4.993 -1.1,-8.043 z M 1876.94,460.5 h 18.89 v -66.051 h 0.44 c 6.74,11.723 18.91,19.121 35.85,19.121 26.29,0 44.55,-21.738 44.55,-53.461 0,-37.589 -23.9,-56.277 -47.37,-56.277 -15.2,0 -27.37,5.867 -35.42,19.559 h -0.43 l -1.09,-17.172 h -16.29 c 0.43,7.172 0.87,17.82 0.87,27.16 V 460.5" /><path
         id="path48"
         style="fill:#af783c;fill-opacity:1;fill-rule:nonzero;stroke:none"
         d="m 2000.6,378.582 c 0,12.387 -0.21,23.027 -0.87,32.809 h 16.73 l 0.87,-20.86 h 0.65 c 4.78,14.117 16.52,23.039 29.34,23.039 1.95,0 3.48,-0.23 5.21,-0.441 V 395.09 c -1.96,0.441 -3.91,0.441 -6.52,0.441 -13.48,0 -23.03,-10 -25.64,-24.34 -0.43,-2.601 -0.65,-5.871 -0.65,-8.91 v -56.062 h -19.12 v 72.363" /><path
         id="path50"
         style="fill:#af783c;fill-opacity:1;fill-rule:nonzero;stroke:none"
         d="m 2125.99,359.891 c -20.86,0.429 -44.54,-3.262 -44.54,-23.692 0,-12.59 8.25,-18.238 17.81,-18.238 13.91,0 22.82,8.687 25.86,17.598 0.66,2.171 0.87,4.339 0.87,6.082 z m 18.47,-28.461 c 0,-9.129 0.44,-18.039 1.52,-25.211 h -17.17 l -1.51,13.25 h -0.65 c -5.87,-8.25 -17.17,-15.637 -32.16,-15.637 -21.3,0 -32.16,14.988 -32.16,30.207 0,25.41 22.6,39.32 63.23,39.109 v 2.172 c 0,8.469 -2.39,24.34 -23.9,24.121 -10,0 -20.21,-2.832 -27.6,-7.832 l -4.35,12.832 c 8.69,5.43 21.52,9.129 34.77,9.129 32.16,0 39.98,-21.961 39.98,-42.82 v -39.32" /><path
         id="path52"
         style="fill:#af783c;fill-opacity:1;fill-rule:nonzero;stroke:none"
         d="m 2175.35,382.922 c 0,11.09 -0.22,19.777 -0.87,28.469 h 16.94 l 1.09,-17.379 h 0.43 c 5.22,9.769 17.39,19.558 34.77,19.558 14.56,0 37.16,-8.699 37.16,-44.769 v -62.582 h -19.12 v 60.633 c 0,16.937 -6.3,31.07 -24.34,31.07 -12.39,0 -22.17,-8.91 -25.64,-19.563 -0.87,-2.39 -1.3,-5.648 -1.3,-8.91 v -63.23 h -19.12 v 76.703" /><path
         id="path54"
         style="fill:#af783c;fill-opacity:1;fill-rule:nonzero;stroke:none"
         d="m 2367.67,368.59 c 0,2.379 -0.21,5.64 -0.87,8.031 -2.82,11.961 -13.25,21.949 -27.59,21.949 -19.77,0 -31.51,-17.39 -31.51,-40.41 0,-21.301 10.65,-38.898 31.07,-38.898 12.83,0 24.56,8.687 28.03,22.808 0.66,2.61 0.87,5.219 0.87,8.262 z m 18.91,91.91 V 333.379 c 0,-9.34 0.43,-19.988 0.87,-27.16 h -16.95 l -0.88,18.25 h -0.64 c -5.65,-11.719 -18.25,-20.637 -35.42,-20.637 -25.42,0 -45.2,21.508 -45.2,53.457 -0.21,34.981 21.73,56.281 47.15,56.281 16.3,0 26.95,-7.609 31.73,-15.871 h 0.43 V 460.5 h 18.91" /><path
         id="path56"
         style="fill:#af783c;fill-opacity:1;fill-rule:nonzero;stroke:none"
         d="m 2464.62,460.5 h 19.13 V 306.219 h -19.13 V 460.5" /><path
         id="path58"
         style="fill:#af783c;fill-opacity:1;fill-rule:nonzero;stroke:none"
         d="m 2527.87,358.59 c 0,-23.031 13.03,-40.41 31.72,-40.41 18.25,0 31.94,17.16 31.94,40.851 0,17.809 -8.91,40.188 -31.51,40.188 -22.38,0 -32.15,-20.86 -32.15,-40.629 z m 83.22,1.09 c 0,-38.899 -27.16,-55.848 -52.37,-55.848 -28.25,0 -50.41,20.859 -50.41,54.109 0,34.981 23.25,55.629 52.14,55.629 30.21,0 50.64,-21.961 50.64,-53.89" /><path
         id="path60"
         style="fill:#af783c;fill-opacity:1;fill-rule:nonzero;stroke:none"
         d="m 2706.07,369.879 c 0,3.269 -0.22,6.09 -1.09,8.48 -3.48,11.301 -12.6,20.422 -26.72,20.422 -18.26,0 -31.29,-15.422 -31.29,-39.75 0,-20.652 10.64,-37.82 31.07,-37.82 11.95,0 22.6,7.398 26.51,19.559 1.08,3.269 1.52,6.96 1.52,10.222 z m 19.12,-48.231 c 0,-24.328 -5,-38.886 -15,-48.238 -10.43,-9.34 -25.19,-12.601 -38.46,-12.601 -12.59,0 -26.5,3.043 -34.98,8.691 l 4.79,14.781 c 6.95,-4.562 17.81,-8.48 30.85,-8.48 19.56,0 33.89,10.219 33.89,36.949 v 11.512 h -0.43 c -5.65,-9.782 -17.16,-17.614 -33.46,-17.614 -26.08,0 -44.76,22.172 -44.76,51.293 0,35.629 23.24,55.629 47.58,55.629 18.25,0 28.03,-9.351 32.81,-18.039 h 0.43 l 0.66,15.86 h 16.95 c -0.65,-7.391 -0.87,-16.09 -0.87,-28.68 v -61.063" /><path
         id="path62"
         style="fill:#af783c;fill-opacity:1;fill-rule:nonzero;stroke:none"
         d="m 2768.68,358.59 c 0,-23.031 13.03,-40.41 31.73,-40.41 18.24,0 31.93,17.16 31.93,40.851 0,17.809 -8.91,40.188 -31.51,40.188 -22.38,0 -32.15,-20.86 -32.15,-40.629 z m 83.22,1.09 c 0,-38.899 -27.16,-55.848 -52.37,-55.848 -28.25,0 -50.41,20.859 -50.41,54.109 0,34.981 23.25,55.629 52.14,55.629 30.21,0 50.64,-21.961 50.64,-53.89" /><path
         id="path64"
         style="fill:#af783c;fill-opacity:1;fill-rule:nonzero;stroke:none"
         d="m 2873.43,325.559 c 5.87,-3.477 15.86,-7.379 25.43,-7.379 13.68,0 20.21,6.73 20.21,15.64 0,9.121 -5.44,13.91 -19.35,19.121 -19.12,6.95 -28.03,17.168 -28.03,29.77 0,16.949 13.91,30.859 36.29,30.859 10.65,0 19.99,-2.84 25.65,-6.531 l -4.57,-13.898 c -4.12,2.601 -11.73,6.3 -21.51,6.3 -11.3,0 -17.38,-6.519 -17.38,-14.339 0,-8.692 6.08,-12.614 19.77,-18.043 18.03,-6.739 27.59,-15.86 27.59,-31.5 0,-18.688 -14.56,-31.727 -39.11,-31.727 -11.51,0 -22.16,3.047 -29.55,7.387 l 4.56,14.34" /><path
         id="path66"
         style="fill:#af783c;fill-opacity:1;fill-rule:nonzero;stroke:none"
         d="m 3008.19,306.219 v 105.172 h 19.12 V 306.219 Z m 21.3,134.722 c 0,-6.511 -4.57,-11.73 -12.17,-11.73 -6.95,0 -11.52,5.219 -11.52,11.73 0,6.508 4.78,11.95 11.95,11.95 6.95,0 11.74,-5.211 11.74,-11.95" /><path
         id="path68"
         style="fill:#af783c;fill-opacity:1;fill-rule:nonzero;stroke:none"
         d="m 3059.04,382.922 c 0,11.09 -0.22,19.777 -0.87,28.469 h 16.95 l 1.09,-17.379 h 0.43 c 5.21,9.769 17.38,19.558 34.76,19.558 14.56,0 37.16,-8.699 37.16,-44.769 v -62.582 h -19.12 v 60.633 c 0,16.937 -6.3,31.07 -24.34,31.07 -12.38,0 -22.16,-8.91 -25.63,-19.563 -0.87,-2.39 -1.31,-5.648 -1.31,-8.91 v -63.23 h -19.12 v 76.703" /><path
         id="path70"
         style="fill:#af783c;fill-opacity:1;fill-rule:nonzero;stroke:none"
         d="m 3233.13,411.391 20.63,-58.891 c 3.48,-9.77 6.31,-18.461 8.48,-27.16 h 0.66 c 2.39,8.699 5.43,17.39 8.9,27.16 l 20.43,58.891 h 19.99 l -41.29,-105.172 h -18.25 l -39.98,105.172 h 20.43" /><path
         id="path72"
         style="fill:#af783c;fill-opacity:1;fill-rule:nonzero;stroke:none"
         d="m 3394.82,369.02 c 0.21,11.949 -5,30.851 -26.5,30.851 -19.57,0 -27.82,-17.59 -29.34,-30.851 z m -56.06,-13.7 c 0.43,-25.851 16.73,-36.5 36.07,-36.5 13.69,0 22.16,2.391 29.11,5.442 l 3.48,-13.692 c -6.73,-3.039 -18.47,-6.738 -35.2,-6.738 -32.37,0 -51.72,21.508 -51.72,53.227 0,31.73 18.69,56.511 49.33,56.511 34.55,0 43.46,-29.988 43.46,-49.332 0,-3.918 -0.22,-6.738 -0.66,-8.918 h -73.87" /><path
         id="path74"
         style="fill:#af783c;fill-opacity:1;fill-rule:nonzero;stroke:none"
         d="m 3511.97,309.91 c -5,-2.379 -16.09,-6.078 -30.21,-6.078 -31.73,0 -52.37,21.508 -52.37,53.668 0,32.371 22.17,56.07 56.5,56.07 11.29,0 21.29,-2.84 26.51,-5.66 l -4.35,-14.558 c -4.56,2.39 -11.73,5 -22.16,5 -24.12,0 -37.15,-18.043 -37.15,-39.762 0,-24.34 15.64,-39.328 36.5,-39.328 10.86,0 18.04,2.609 23.47,5 l 3.26,-14.352" /><path
         id="path76"
         style="fill:#af783c;fill-opacity:1;fill-rule:nonzero;stroke:none"
         d="m 3560.22,436.59 v -25.199 h 27.37 v -14.559 h -27.37 v -56.711 c 0,-13.039 3.69,-20.422 14.34,-20.422 5.21,0 8.26,0.43 11.08,1.301 l 0.87,-14.559 c -3.69,-1.3 -9.56,-2.609 -16.94,-2.609 -8.92,0 -16.09,3.047 -20.65,8.039 -5.21,5.867 -7.39,15.211 -7.39,27.59 v 57.371 h -16.3 v 14.559 h 16.3 v 19.558 l 18.69,5.641" /><path
         id="path78"
         style="fill:#af783c;fill-opacity:1;fill-rule:nonzero;stroke:none"
         d="m 3619.78,358.59 c 0,-23.031 13.04,-40.41 31.72,-40.41 18.26,0 31.94,17.16 31.94,40.851 0,17.809 -8.9,40.188 -31.5,40.188 -22.38,0 -32.16,-20.86 -32.16,-40.629 z m 83.22,1.09 c 0,-38.899 -27.17,-55.848 -52.36,-55.848 -28.25,0 -50.41,20.859 -50.41,54.109 0,34.981 23.24,55.629 52.15,55.629 30.19,0 50.62,-21.961 50.62,-53.89" /><path
         id="path80"
         style="fill:#af783c;fill-opacity:1;fill-rule:nonzero;stroke:none"
         d="m 3727.14,378.582 c 0,12.387 -0.21,23.027 -0.87,32.809 H 3743 l 0.88,-20.86 h 0.65 c 4.78,14.117 16.51,23.039 29.33,23.039 1.96,0 3.48,-0.23 5.22,-0.441 V 395.09 c -1.96,0.441 -3.91,0.441 -6.53,0.441 -13.46,0 -23.02,-10 -25.63,-24.34 -0.44,-2.601 -0.66,-5.871 -0.66,-8.91 v -56.062 h -19.12 v 72.363" /><path
         id="path82"
         style="fill:#af783c;fill-opacity:1;fill-rule:nonzero;stroke:none"
         d="m 3846.25,306.219 v 90.613 h -14.56 v 14.559 h 14.56 v 5 c 0,14.769 3.47,28.238 12.16,36.718 7.18,6.95 16.74,9.77 25.65,9.77 6.95,0 12.6,-1.52 16.3,-3.027 l -2.61,-14.782 c -2.83,1.301 -6.52,2.379 -12.17,2.379 -16.3,0 -20.43,-14.117 -20.43,-30.41 v -5.648 h 25.43 v -14.559 h -25.43 v -90.613 h -18.9" /><path
         id="path84"
         style="fill:#af783c;fill-opacity:1;fill-rule:nonzero;stroke:none"
         d="m 3916.88,358.59 c 0,-23.031 13.04,-40.41 31.73,-40.41 18.24,0 31.93,17.16 31.93,40.851 0,17.809 -8.9,40.188 -31.5,40.188 -22.38,0 -32.16,-20.86 -32.16,-40.629 z m 83.22,1.09 c 0,-38.899 -27.16,-55.848 -52.37,-55.848 -28.24,0 -50.41,20.859 -50.41,54.109 0,34.981 23.25,55.629 52.15,55.629 30.2,0 50.63,-21.961 50.63,-53.89" /><path
         id="path86"
         style="fill:#af783c;fill-opacity:1;fill-rule:nonzero;stroke:none"
         d="m 4024.24,378.582 c 0,12.387 -0.21,23.027 -0.87,32.809 h 16.74 l 0.86,-20.86 h 0.66 c 4.78,14.117 16.51,23.039 29.33,23.039 1.96,0 3.48,-0.23 5.22,-0.441 V 395.09 c -1.96,0.441 -3.92,0.441 -6.52,0.441 -13.47,0 -23.03,-10 -25.64,-24.34 -0.43,-2.601 -0.66,-5.871 -0.66,-8.91 v -56.062 h -19.12 v 72.363" /><path
         id="path88"
         style="fill:#af783c;fill-opacity:1;fill-rule:nonzero;stroke:none"
         d="m 4096.19,382.922 c 0,11.09 -0.43,19.777 -0.87,28.469 h 16.73 l 0.87,-17.172 h 0.65 c 5.87,10 15.64,19.351 33.24,19.351 14.13,0 24.99,-8.699 29.55,-21.09 h 0.44 c 3.26,6.09 7.61,10.43 11.95,13.692 6.3,4.777 13.04,7.398 23.03,7.398 14.13,0 34.77,-9.129 34.77,-45.64 v -61.711 h -18.68 v 59.32 c 0,20.43 -7.61,32.383 -22.82,32.383 -11.08,0 -19.34,-8.051 -22.82,-17.172 -0.87,-2.828 -1.51,-6.078 -1.51,-9.559 v -64.972 h -18.69 v 63.011 c 0,16.739 -7.39,28.692 -21.95,28.692 -11.74,0 -20.64,-9.57 -23.68,-19.121 -1.09,-2.621 -1.52,-6.09 -1.52,-9.352 v -63.23 h -18.69 v 76.703" /><path
         id="path90"
         style="fill:#af783c;fill-opacity:1;fill-rule:nonzero;stroke:none"
         d="m 4332.86,359.891 c -20.86,0.429 -44.54,-3.262 -44.54,-23.692 0,-12.59 8.25,-18.238 17.81,-18.238 13.9,0 22.81,8.687 25.86,17.598 0.65,2.171 0.87,4.339 0.87,6.082 z m 18.46,-28.461 c 0,-9.129 0.44,-18.039 1.53,-25.211 h -17.17 l -1.52,13.25 h -0.65 c -5.87,-8.25 -17.17,-15.637 -32.16,-15.637 -21.3,0 -32.16,14.988 -32.16,30.207 0,25.41 22.6,39.32 63.23,39.109 v 2.172 c 0,8.469 -2.39,24.34 -23.9,24.121 -9.99,0 -20.2,-2.832 -27.6,-7.832 l -4.34,12.832 c 8.69,5.43 21.51,9.129 34.76,9.129 32.16,0 39.98,-21.961 39.98,-42.82 v -39.32" /><path
         id="path92"
         style="fill:#af783c;fill-opacity:1;fill-rule:nonzero;stroke:none"
         d="m 4404.38,436.59 v -25.199 h 27.37 v -14.559 h -27.37 v -56.711 c 0,-13.039 3.69,-20.422 14.34,-20.422 5.21,0 8.26,0.43 11.08,1.301 l 0.87,-14.559 c -3.69,-1.3 -9.56,-2.609 -16.94,-2.609 -8.92,0 -16.09,3.047 -20.65,8.039 -5.21,5.867 -7.39,15.211 -7.39,27.59 v 57.371 h -16.3 v 14.559 h 16.3 v 19.558 l 18.69,5.641" /><path
         id="path94"
         style="fill:#af783c;fill-opacity:1;fill-rule:nonzero;stroke:none"
         d="m 4501.3,306.219 v 90.613 h -14.55 v 14.559 h 14.55 v 5 c 0,14.769 3.48,28.238 12.17,36.718 7.18,6.95 16.74,9.77 25.65,9.77 6.95,0 12.59,-1.52 16.3,-3.027 l -2.61,-14.782 c -2.83,1.301 -6.53,2.379 -12.17,2.379 -16.3,0 -20.43,-14.117 -20.43,-30.41 v -5.648 h 25.43 v -14.559 h -25.43 v -90.613 h -18.91" /><path
         id="path96"
         style="fill:#af783c;fill-opacity:1;fill-rule:nonzero;stroke:none"
         d="m 4571.95,358.59 c 0,-23.031 13.04,-40.41 31.72,-40.41 18.26,0 31.94,17.16 31.94,40.851 0,17.809 -8.91,40.188 -31.5,40.188 -22.39,0 -32.16,-20.86 -32.16,-40.629 z m 83.22,1.09 c 0,-38.899 -27.17,-55.848 -52.36,-55.848 -28.25,0 -50.41,20.859 -50.41,54.109 0,34.981 23.24,55.629 52.15,55.629 30.19,0 50.62,-21.961 50.62,-53.89" /><path
         id="path98"
         style="fill:#af783c;fill-opacity:1;fill-rule:nonzero;stroke:none"
         d="m 4679.31,378.582 c 0,12.387 -0.21,23.027 -0.87,32.809 h 16.73 l 0.88,-20.86 h 0.64 c 4.79,14.117 16.52,23.039 29.34,23.039 1.95,0 3.48,-0.23 5.22,-0.441 V 395.09 c -1.96,0.441 -3.91,0.441 -6.53,0.441 -13.47,0 -23.03,-10 -25.63,-24.34 -0.44,-2.601 -0.66,-5.871 -0.66,-8.91 v -56.062 h -19.12 v 72.363" /><path
         id="path100"
         style="fill:#af783c;fill-opacity:1;fill-rule:nonzero;stroke:none"
         d="m 4798.41,306.219 v 90.613 h -14.55 v 14.559 h 14.55 v 5 c 0,14.769 3.48,28.238 12.17,36.718 7.18,6.95 16.74,9.77 25.65,9.77 6.95,0 12.59,-1.52 16.29,-3.027 l -2.6,-14.782 c -2.84,1.301 -6.53,2.379 -12.17,2.379 -16.3,0 -20.43,-14.117 -20.43,-30.41 v -5.648 h 25.43 v -14.559 h -25.43 v -90.613 h -18.91" /><path
         id="path102"
         style="fill:#af783c;fill-opacity:1;fill-rule:nonzero;stroke:none"
         d="m 4859.92,378.582 c 0,12.387 -0.22,23.027 -0.87,32.809 h 16.73 l 0.88,-20.86 h 0.64 c 4.78,14.117 16.51,23.039 29.34,23.039 1.95,0 3.47,-0.23 5.21,-0.441 V 395.09 c -1.95,0.441 -3.91,0.441 -6.52,0.441 -13.47,0 -23.03,-10 -25.64,-24.34 -0.44,-2.601 -0.65,-5.871 -0.65,-8.91 v -56.062 h -19.12 v 72.363" /><path
         id="path104"
         style="fill:#af783c;fill-opacity:1;fill-rule:nonzero;stroke:none"
         d="m 4995.53,369.02 c 0.22,11.949 -5,30.851 -26.51,30.851 -19.55,0 -27.81,-17.59 -29.33,-30.851 z m -56.06,-13.7 c 0.44,-25.851 16.74,-36.5 36.07,-36.5 13.69,0 22.17,2.391 29.12,5.442 l 3.48,-13.692 c -6.74,-3.039 -18.48,-6.738 -35.21,-6.738 -32.37,0 -51.7,21.508 -51.7,53.227 0,31.73 18.68,56.511 49.31,56.511 34.55,0 43.46,-29.988 43.46,-49.332 0,-3.918 -0.22,-6.738 -0.65,-8.918 h -73.88" /><path
         id="path106"
         style="fill:#af783c;fill-opacity:1;fill-rule:nonzero;stroke:none"
         d="m 5104.42,369.02 c 0.21,11.949 -5,30.851 -26.51,30.851 -19.56,0 -27.82,-17.59 -29.33,-30.851 z m -56.07,-13.7 c 0.44,-25.851 16.74,-36.5 36.08,-36.5 13.69,0 22.17,2.391 29.12,5.442 l 3.48,-13.692 c -6.74,-3.039 -18.48,-6.738 -35.21,-6.738 -32.37,0 -51.71,21.508 -51.71,53.227 0,31.73 18.68,56.511 49.32,56.511 34.55,0 43.46,-29.988 43.46,-49.332 0,-3.918 -0.22,-6.738 -0.65,-8.918 h -73.89" /><path
         id="path108"
         style="fill:#af783c;fill-opacity:1;fill-rule:nonzero;stroke:none"
         d="m 5139.43,317.52 c 0,7.82 5.43,13.691 13.04,13.691 7.6,0 12.82,-5.652 12.82,-13.691 0,-7.821 -5.22,-13.688 -13.26,-13.688 -7.39,0 -12.6,5.867 -12.6,13.688" /><path
         id="path110"
         style="fill:#2d68af;fill-opacity:1;fill-rule:nonzero;stroke:none"
         d="m 1113.75,199.68 h 33.02 v -60.84 h 0.44 c 3.48,4.781 7.82,8.48 13.04,11.082 4.99,2.609 11.08,4.129 17.16,4.129 21.08,0 37.16,-14.559 37.16,-46.711 V 45.4102 h -33.03 v 58.4488 c 0,13.911 -4.78,23.473 -17.16,23.473 -8.7,0 -14.13,-5.652 -16.52,-11.73 -0.87,-1.961 -1.09,-4.793 -1.09,-7.172 V 45.4102 h -33.02 V 199.68" /><path
         id="path112"
         style="fill:#2d68af;fill-opacity:1;fill-rule:nonzero;stroke:none"
         d="m 1298.48,180.34 v -28.68 h 23.68 v -24.328 h -23.68 V 88.8711 c 0,-12.8203 3.26,-18.6797 13.04,-18.6797 4.56,0 6.73,0.2109 9.77,0.8594 l 0.22,-24.9805 c -4.13,-1.5312 -12.17,-2.8398 -21.29,-2.8398 -10.65,0 -19.56,3.7109 -24.99,9.1406 -6.08,6.2891 -9.13,16.5078 -9.13,31.5 v 43.4609 h -14.12 v 24.328 h 14.12 v 19.781 l 32.38,8.899" /><path
         id="path114"
         style="fill:#2d68af;fill-opacity:1;fill-rule:nonzero;stroke:none"
         d="m 1399.98,180.34 v -28.68 h 23.68 v -24.328 h -23.68 V 88.8711 c 0,-12.8203 3.26,-18.6797 13.03,-18.6797 4.57,0 6.74,0.2109 9.78,0.8594 l 0.22,-24.9805 c -4.13,-1.5312 -12.17,-2.8398 -21.3,-2.8398 -10.64,0 -19.55,3.7109 -24.98,9.1406 -6.09,6.2891 -9.13,16.5078 -9.13,31.5 v 43.4609 h -14.12 v 24.328 h 14.12 v 19.781 l 32.38,8.899" /><path
         id="path116"
         style="fill:#2d68af;fill-opacity:1;fill-rule:nonzero;stroke:none"
         d="m 1497.56,91.0508 c 0,-2.6211 0.22,-4.7891 0.65,-6.961 2.18,-8.9101 9.78,-15.6406 19.34,-15.6406 14.34,0 22.82,11.9414 22.82,29.9805 0,16.9493 -7.61,29.7693 -22.39,29.7693 -9.34,0 -17.59,-6.957 -19.77,-16.73 -0.43,-1.739 -0.65,-3.918 -0.65,-5.867 z m -33.02,24.9802 c 0,13.899 -0.44,25.641 -0.87,35.629 h 28.68 l 1.52,-14.769 h 0.43 c 7.82,11.078 19.99,17.16 35.42,17.16 23.25,0 44.11,-20.199 44.11,-54.1018 0,-38.6797 -24.56,-56.9297 -48.24,-56.9297 -12.82,0 -22.81,5.211 -27.6,12.1719 h -0.43 V 2.39063 h -33.02 V 116.031" /><path
         id="path118"
         style="fill:#2d68af;fill-opacity:1;fill-rule:nonzero;stroke:none"
         d="m 1614.07,62.7891 c 0,11.7304 8.03,20 19.33,20 11.52,0 19.12,-8.0391 19.34,-20 0,-11.2891 -7.61,-19.7696 -19.55,-19.7696 -11.3,0 -19.12,8.4805 -19.12,19.7696 z m 0,70.1909 c 0,11.731 8.03,19.989 19.33,19.989 11.52,0 19.12,-8.039 19.34,-19.989 0,-11.3 -7.61,-19.781 -19.55,-19.781 -11.3,0 -19.12,8.481 -19.12,19.781" /><path
         id="path120"
         style="fill:#2d68af;fill-opacity:1;fill-rule:nonzero;stroke:none"
         d="m 1684.7,36.9414 46.51,157.5196 h 21.94 l -46.5,-157.5196 h -21.95" /><path
         id="path122"
         style="fill:#2d68af;fill-opacity:1;fill-rule:nonzero;stroke:none"
         d="m 1778.37,36.9414 46.51,157.5196 h 21.94 l -46.5,-157.5196 h -21.95" /><path
         id="path124"
         style="fill:#2d68af;fill-opacity:1;fill-rule:nonzero;stroke:none"
         d="m 1904.64,151.66 8.69,-43.672 c 1.96,-10.8669 4.14,-22.5974 5.87,-34.7692 h 0.66 c 1.95,12.1718 5.21,24.1328 7.6,34.5622 l 11.29,43.879 h 26.08 l 10.65,-42.371 c 3.04,-12.1679 5.86,-23.8984 7.82,-36.0702 h 0.44 c 1.52,11.9609 3.69,24.1328 6.29,36.2932 l 8.91,42.148 h 32.38 L 1998.73,45.4102 h -30.85 l -10,37.1601 c -2.83,10.4297 -4.78,19.9887 -6.96,33.2387 h -0.43 c -1.96,-13.25 -4.13,-23.2504 -6.74,-33.0199 l -10.64,-37.3789 h -31.07 L 1870.96,151.66 h 33.68" /><path
         id="path126"
         style="fill:#2d68af;fill-opacity:1;fill-rule:nonzero;stroke:none"
         d="m 2095.46,151.66 8.7,-43.672 c 1.95,-10.8669 4.13,-22.5974 5.86,-34.7692 h 0.66 c 1.95,12.1718 5.21,24.1328 7.6,34.5622 l 11.3,43.879 h 26.07 l 10.65,-42.371 c 3.04,-12.1679 5.86,-23.8984 7.82,-36.0702 h 0.44 c 1.52,11.9609 3.69,24.1328 6.29,36.2932 l 8.91,42.148 h 32.38 L 2189.55,45.4102 h -30.85 l -10,37.1601 c -2.83,10.4297 -4.78,19.9887 -6.96,33.2387 h -0.43 c -1.96,-13.25 -4.13,-23.2504 -6.73,-33.0199 l -10.65,-37.3789 h -31.07 L 2061.78,151.66 h 33.68" /><path
         id="path128"
         style="fill:#2d68af;fill-opacity:1;fill-rule:nonzero;stroke:none"
         d="m 2286.28,151.66 8.7,-43.672 c 1.96,-10.8669 4.13,-22.5974 5.86,-34.7692 h 0.66 c 1.95,12.1718 5.21,24.1328 7.61,34.5622 l 11.3,43.879 h 26.07 l 10.64,-42.371 c 3.05,-12.1679 5.87,-23.8984 7.83,-36.0702 h 0.44 c 1.51,11.9609 3.69,24.1328 6.29,36.2932 l 8.91,42.148 h 32.37 L 2380.38,45.4102 h -30.86 l -9.99,37.1601 c -2.84,10.4297 -4.79,19.9887 -6.96,33.2387 h -0.44 c -1.95,-13.25 -4.13,-23.2504 -6.72,-33.0199 l -10.66,-37.3789 h -31.06 L 2252.61,151.66 h 33.67" /><path
         id="path130"
         style="fill:#2d68af;fill-opacity:1;fill-rule:nonzero;stroke:none"
         d="m 2437.35,63.0117 c 0,11.9492 8.04,20.1992 19.56,20.1992 11.29,0 19.12,-8.0312 19.34,-20.1992 0,-11.5117 -7.83,-19.9922 -19.78,-19.9922 -11.08,0 -19.12,8.4805 -19.12,19.9922" /><path
         id="path132"
         style="fill:#2d68af;fill-opacity:1;fill-rule:nonzero;stroke:none"
         d="m 2517.98,199.68 h 33.03 V 45.4102 h -33.03 V 199.68" /><path
         id="path134"
         style="fill:#2d68af;fill-opacity:1;fill-rule:nonzero;stroke:none"
         d="m 2627.51,98.6406 c 0,-18.25 7.61,-31.9297 21.73,-31.9297 13.04,0 21.08,12.8086 21.08,32.1485 0,15.6406 -6.09,31.7306 -21.08,31.7306 -15.64,0 -21.73,-16.301 -21.73,-31.9494 z m 76.92,1.1016 c 0,-38.9024 -27.59,-56.7227 -56.06,-56.7227 -31.07,0 -54.97,20.4297 -54.97,54.7618 0,34.5507 22.6,56.4887 56.93,56.4887 32.38,0 54.1,-22.379 54.1,-54.5278" /><path
         id="path136"
         style="fill:#2d68af;fill-opacity:1;fill-rule:nonzero;stroke:none"
         d="m 2814.85,108.43 c 0,1.949 -0.22,4.121 -0.66,6.07 -2.38,8.699 -8.69,14.559 -17.81,14.559 -12.17,0 -21.73,-10.86 -21.73,-30.1996 0,-15.8594 7.83,-28.2383 21.52,-28.2383 8.69,0 15.42,5.6406 17.59,13.25 0.87,2.6094 1.09,6.0781 1.09,8.918 z m 33.03,-47.5902 c 0,-20.4296 -4.13,-37.1601 -16.3,-47.8007 C 2820.06,3.03906 2804.2,0 2788.56,0 c -14.13,0 -28.68,2.82031 -38.24,8.03906 l 6.51,25.20314 c 6.74,-3.9102 18.25,-8.0313 30.86,-8.0313 15.64,0 27.6,8.25 27.6,28.0196 v 6.7383 h -0.44 c -6.3,-8.6875 -16.52,-13.6875 -28.68,-13.6875 -26.29,0 -44.98,21.289 -44.98,51.7187 0,34.332 21.95,56.051 48.24,56.051 14.55,0 23.68,-6.289 29.11,-15.211 h 0.44 l 1.08,12.82 h 28.69 c -0.43,-6.949 -0.87,-15.859 -0.87,-31.719 V 60.8398" /><path
         id="path138"
         style="fill:#2d68af;fill-opacity:1;fill-rule:nonzero;stroke:none"
         d="m 2924.17,98.6406 c 0,-18.25 7.61,-31.9297 21.74,-31.9297 13.03,0 21.08,12.8086 21.08,32.1485 0,15.6406 -6.09,31.7306 -21.08,31.7306 -15.64,0 -21.74,-16.301 -21.74,-31.9494 z m 76.93,1.1016 c 0,-38.9024 -27.6,-56.7227 -56.07,-56.7227 -31.06,0 -54.97,20.4297 -54.97,54.7618 0,34.5507 22.6,56.4887 56.94,56.4887 32.37,0 54.1,-22.379 54.1,-54.5278" /><path
         id="path140"
         style="fill:#2d68af;fill-opacity:1;fill-rule:nonzero;stroke:none"
         d="m 3108.26,110.602 c 0,8.027 -3.48,21.507 -18.68,21.507 -13.91,0 -19.57,-12.82 -20.43,-21.507 z M 3069.37,88 c 0.86,-13.6914 14.55,-20.2109 29.98,-20.2109 11.3,0 20.43,1.5195 29.34,4.5703 l 4.34,-22.3906 c -10.87,-4.5586 -24.12,-6.7383 -38.46,-6.7383 -36.07,0 -56.71,20.8593 -56.71,54.1211 0,26.9374 16.72,56.6994 53.67,56.6994 34.32,0 47.37,-26.719 47.37,-53.012 0,-5.6601 -0.65,-10.6484 -1.09,-13.039 h -68.44" /><path
         id="path142"
         style="fill:#2d68af;fill-opacity:1;fill-rule:nonzero;stroke:none"
         d="m 3213.46,91.0508 c 0,-2.6211 0.23,-4.7891 0.66,-6.961 2.16,-8.9101 9.77,-15.6406 19.33,-15.6406 14.35,0 22.81,11.9414 22.81,29.9805 0,16.9493 -7.59,29.7693 -22.37,29.7693 -9.34,0 -17.61,-6.957 -19.77,-16.73 -0.43,-1.739 -0.66,-3.918 -0.66,-5.867 z m -33.03,24.9802 c 0,13.899 -0.43,25.641 -0.86,35.629 h 28.68 l 1.52,-14.769 h 0.44 c 7.81,11.078 19.98,17.16 35.41,17.16 23.25,0 44.11,-20.199 44.11,-54.1018 0,-38.6797 -24.55,-56.9297 -48.23,-56.9297 -12.82,0 -22.82,5.211 -27.6,12.1719 h -0.44 V 2.39063 h -33.03 V 116.031" /><path
         id="path144"
         style="fill:#2d68af;fill-opacity:1;fill-rule:nonzero;stroke:none"
         d="m 3331.92,74.0898 c 6.08,-3.6875 18.68,-7.8203 28.47,-7.8203 9.99,0 14.12,3.2618 14.12,8.6914 0,5.6602 -3.26,8.25 -15.43,12.3907 -22.16,7.3906 -30.64,19.3394 -30.42,31.9374 0,19.992 16.95,34.981 43.24,34.981 12.38,0 23.25,-3.04 29.77,-6.301 l -5.65,-22.809 c -4.78,2.61 -14.13,6.082 -23.04,6.082 -8.03,0 -12.59,-3.262 -12.59,-8.472 0,-5.219 4.12,-7.829 17.16,-12.391 20.21,-6.949 28.46,-17.379 28.68,-32.8087 0,-19.9883 -15.42,-34.5508 -45.84,-34.5508 -13.91,0 -26.29,3.2618 -34.34,7.6094 l 5.87,23.4609" /><path
         id="path146"
         style="fill:#2d68af;fill-opacity:1;fill-rule:nonzero;stroke:none"
         d="m 3443.63,63.0117 c 0,11.9492 8.04,20.1992 19.56,20.1992 11.3,0 19.12,-8.0312 19.33,-20.1992 0,-11.5117 -7.82,-19.9922 -19.77,-19.9922 -11.08,0 -19.12,8.4805 -19.12,19.9922" /><path
         id="path148"
         style="fill:#2d68af;fill-opacity:1;fill-rule:nonzero;stroke:none"
         d="m 3604.01,48.2305 c -5.87,-2.8203 -16.94,-5 -29.55,-5 -34.33,0 -56.28,21.0898 -56.28,54.3281 0,31.0704 21.3,56.4924 60.84,56.4924 8.69,0 18.25,-1.52 25.2,-4.129 l -5.21,-24.551 c -3.91,1.738 -9.78,3.258 -18.47,3.258 -17.38,0 -28.68,-12.387 -28.46,-29.7696 0,-19.3399 13.03,-29.7696 29.12,-29.7696 7.82,0 13.9,1.3125 18.89,3.4805 l 3.92,-24.3398" /><path
         id="path150"
         style="fill:#2d68af;fill-opacity:1;fill-rule:nonzero;stroke:none"
         d="m 3669.66,98.6406 c 0,-18.25 7.6,-31.9297 21.72,-31.9297 13.05,0 21.09,12.8086 21.09,32.1485 0,15.6406 -6.09,31.7306 -21.09,31.7306 -15.64,0 -21.72,-16.301 -21.72,-31.9494 z m 76.92,1.1016 c 0,-38.9024 -27.6,-56.7227 -56.06,-56.7227 -31.07,0 -54.98,20.4297 -54.98,54.7618 0,34.5507 22.6,56.4887 56.94,56.4887 32.37,0 54.1,-22.379 54.1,-54.5278" /><path
         id="path152"
         style="fill:#2d68af;fill-opacity:1;fill-rule:nonzero;stroke:none"
         d="m 3788.77,117.77 c 0,13.261 -0.43,24.332 -0.86,33.89 h 28.02 l 1.31,-14.328 h 0.66 c 4.56,6.949 14.12,16.938 32.15,16.938 13.91,0 24.55,-7.168 29.12,-18.25 h 0.43 c 4.13,5.652 8.7,10 13.91,13.031 5.86,3.269 12.38,5.219 20.21,5.219 20.42,0 35.85,-14.34 35.85,-46.282 V 45.4102 h -32.16 v 57.8008 c 0,15.418 -4.99,24.34 -15.65,24.34 -7.82,0 -13.03,-5.211 -15.42,-11.52 -0.65,-2.39 -1.09,-5.652 -1.09,-8.48 V 45.4102 h -32.16 v 59.7618 c 0,13.25 -4.77,22.379 -15.42,22.379 -8.48,0 -13.48,-6.52 -15.43,-11.742 -1.09,-2.61 -1.31,-5.637 -1.31,-8.469 V 45.4102 h -32.16 V 117.77" /><path
         id="path154"
         style="fill:#2d68af;fill-opacity:1;fill-rule:nonzero;stroke:none"
         d="m 3987.64,36.9414 46.5,157.5196 h 21.95 L 4009.58,36.9414 h -21.94" /><path
         id="path156"
         style="fill:#171717;fill-opacity:1;fill-rule:evenodd;stroke:none"
         d="m 3443.52,3683.05 -0.17,0.31 c -18.46,34.92 -44.45,56.3 -77.26,63.56 -16.76,3.71 -33.86,3.35 -50.27,0.63 6.24,24.62 8.21,50.04 5.49,75.4 27.4,-12.97 57.69,-23.68 78.25,-37.49 40.83,-27.39 48.49,-63.42 48.49,-63.42 4.49,17.92 21.85,85.86 8.21,155.95 -15.51,79.66 -85.79,164.13 -174.58,117.13 -12.69,-7.78 -22.86,-22.11 -28.62,-39.56 -65.03,58.74 -166.45,80.89 -264.95,49.24 -57.52,-18.46 -107.26,-53.46 -141.76,-98.56 -32.39,25.77 -73.49,34.25 -116.96,6.21 -30.62,-22.68 -41.71,-88.49 -4.93,-135.4 15.83,-20.16 44.94,-32.12 74.19,-42.88 1.64,-11.11 4.14,-22.07 7.6,-32.84 11.36,-35.4 32.11,-66.83 60.12,-92.07 -9.85,-6.49 -18.99,-14.23 -26.77,-23.46 -21.66,-25.7 -29.31,-58.48 -22.79,-97.44 l 0.05,-0.34 0.1,-0.36 c 4.31,-18.23 15.38,-31.03 31.23,-36.03 17.6,-5.56 38.92,-0.34 54.33,13.33 14.05,12.47 18.56,26.11 23.34,40.52 3.74,11.38 7.63,23.12 16.81,36.93 3.93,5.89 8.19,11.44 12.58,16.57 40.46,-12.85 84.66,-16.07 128.51,-9.41 3.6,-16.85 4.02,-39.35 -1.9,-70.11 -10.47,-5.48 -19.45,-14.12 -25.94,-25.22 -6.57,-11.2 -10.25,-24.29 -11.13,-38 -0.04,-0.41 -0.14,-0.78 -0.13,-1.2 0.02,-0.11 0.02,-0.28 0.03,-0.42 -0.43,-8.82 0.39,-17.86 2.39,-26.85 0.24,-1.36 0.53,-2.63 0.8,-3.72 0.75,-2.86 1.6,-5.64 2.55,-8.35 10.41,-29.48 32.98,-50.66 58.01,-56.6 2.58,-0.62 5.17,-1.11 7.81,-1.39 7.01,-0.75 14.12,-0.28 21.14,1.56 7.09,1.85 13.69,5.09 19.66,9.39 -0.52,-8.23 -1.03,-16.73 -1.4,-25.3 l -0.24,0.12 -0.13,-11.5 -0.06,-5.47 c -0.01,-1.38 -0.04,-2.9 -0.05,-4.56 -0.06,-10.91 0.28,-26.98 3.88,-42.45 5.03,-22.58 15.9,-39.8 37.74,-44.67 1.39,-0.33 2.84,-0.58 4.33,-0.79 l 0.37,-0.05 0.18,-0.03 h 0.57 0.02 c 0.1,-0.03 0.17,0 0.24,0 1.8,-0.06 3.56,0 5.31,0.16 12.79,1.12 23.98,7.78 33.34,19.4 0.05,0.08 0.12,0.13 0.17,0.19 0.03,0.05 0.05,0.09 0.1,0.12 0.88,1.13 1.76,2.31 2.6,3.53 0.34,0.46 0.67,0.94 0.98,1.43 0.78,1.11 1.54,2.26 2.25,3.44 0.57,0.94 1.13,1.92 1.69,2.91 0.66,1.18 1.33,2.38 1.96,3.61 0.87,1.68 1.73,3.39 2.53,5.2 0.21,0.44 0.41,0.89 0.6,1.33 6.69,15.02 11.42,33.22 14.34,52.99 l 1.97,10.89 -0.57,-0.24 c 4.98,44.07 1.58,94.15 -8.65,133.67 -16.02,61.93 -41.82,120.79 -61.26,160.3 28.45,18.06 52.76,40.43 72.09,65.58 11.91,-1.39 25.4,-4.09 38.6,-8.64 15.68,-5.4 25.9,-12.37 35.77,-19.1 12.57,-8.56 24.44,-16.66 43.19,-18.02 20.51,-1.51 40.62,7.28 51.24,22.39 9.54,13.6 10.57,30.5 2.91,47.62 l -0.14,0.33 v 0" /><path
         id="path158"
         style="fill:#171717;fill-opacity:1;fill-rule:evenodd;stroke:none"
         d="m 2467.15,3725.03 c 6.11,12.79 11.38,25.91 15.57,39.33 0.64,2.03 1.21,4.09 1.8,6.12 12.81,6.92 39.27,14.93 65.24,14.87 16.15,-0.04 27.9,-3.86 39.27,-7.55 14.36,-4.68 29.24,-9.52 48.18,-3.64 19.03,5.91 34.57,21.56 40.57,40.85 5.92,19.08 1.86,38.86 -11.41,55.72 l -0.22,0.3 -0.27,0.28 c -28.42,31.62 -59.72,45.84 -93.01,42.24 -30.31,-3.28 -57.51,-21.07 -79.33,-41.39 -2.62,22.73 -8.48,44.77 -17.41,65.63 20.71,0.55 50.1,2.98 72.82,11.38 30.77,11.37 47.47,31.62 41.52,50.4 -3.73,11.73 -16.09,12.1 -28.08,12.43 -16.17,0.48 -40.63,1.18 -66.25,19.86 -30.61,22.31 -63.42,65.93 -89.76,100.97 -14.08,18.69 -26.23,34.84 -35.27,43.88 -54.5,54.49 -133.31,92.16 -191.01,34.47 -17.46,-17.46 -25.9,-37.56 -29.16,-57.25 -21.56,-1.43 -61,-11.91 -94.3,-28.54 -11.53,8.6 -25.28,15.06 -40.86,18.9 -0.06,0.02 -0.14,0.04 -0.21,0.06 -38.82,8.77 -71.15,2.25 -93.52,-18.87 -17.25,-16.25 -26.72,-37.35 -27.4,-61.02 -0.85,-29.03 12.13,-60.67 34.72,-84.6 7.65,-8.12 16.19,-14.37 25.27,-18.99 -9.42,-10.88 -18.01,-22.31 -25.85,-34.13 -15,11.03 -33.31,24.97 -52.4,40.58 l -23.76,20.02 c -45.22,38.71 -91.96,78.76 -128.48,49.11 -12.66,-10.29 -19.64,-24.69 -20.21,-41.67 -1.22,-36.03 26.14,-83.67 73.19,-127.43 8.29,-7.71 17.42,-14.74 27.03,-21.16 24.44,-16.29 52.12,-28.34 77.86,-36.02 -8.63,-53.06 -0.76,-105.67 23.13,-151.35 29.17,-55.7 78.64,-95.14 137.76,-116.02 75.79,-26.75 167.4,-22.97 252.54,16.45 20.9,-19.46 57.49,-62.23 89.41,-104.48 -4.14,-22.21 1.94,-47.34 17.25,-68.83 0.06,-0.09 0.08,-0.19 0.13,-0.26 0.54,-0.74 1.11,-1.44 1.66,-2.16 1.27,-1.69 2.59,-3.33 3.94,-4.93 1,-1.2 2.04,-2.39 3.11,-3.57 0.72,-0.78 1.46,-1.56 2.21,-2.31 1.85,-1.92 3.76,-3.78 5.74,-5.54 2.03,-1.82 4.16,-3.47 6.29,-5.11 17.1,-13.17 37.07,-20.92 56.77,-21.94 3.16,-0.16 6.32,-0.16 9.47,0.03 1.2,0.08 2.35,0.25 3.55,0.39 l 16.73,-28.43 4.8,1.93 c 0.57,0.21 25.64,10.1 63.75,22.89 6.63,-9.86 16.18,-23.07 28,-34.05 18.23,-17.32 38.49,-26.25 61.21,-17.42 1.12,0.43 2.25,0.94 3.38,1.45 0.35,0.15 0.68,0.26 1.03,0.44 l 0.56,0.28 0.53,0.31 c 1.73,1.1 3.36,2.27 4.91,3.52 10.97,8.81 17.16,21.67 18.59,37.97 0.02,0.09 0.03,0.16 0.03,0.24 0.01,0.04 0.01,0.09 0.01,0.14 0.14,1.58 0.21,3.21 0.26,4.83 0,0.61 0.02,1.24 0.02,1.87 0.02,1.48 0.01,2.99 -0.04,4.52 -0.05,1.18 -0.15,2.4 -0.25,3.62 -0.1,1.51 -0.22,3.05 -0.4,4.58 -0.23,2.03 -0.5,4.09 -0.84,6.19 -0.09,0.54 -0.18,1.09 -0.27,1.63 -0.76,4.37 -1.73,8.85 -2.93,13.4 25.23,6.31 51.34,11.99 77,16.26 l 8.34,1.38 -4,7.45 c -56.86,105.61 -228,272.3 -308.25,329.49 v 0" /><path
         id="path160"
         style="fill:#171717;fill-opacity:1;fill-rule:evenodd;stroke:none"
         d="m 2479.86,2915.78 c -0.06,0.77 -0.11,1.54 -0.19,2.31 -0.1,1.02 -0.21,2.06 -0.34,3.1 -0.24,1.76 -0.5,3.51 -0.86,5.33 -0.06,0.25 -0.1,0.52 -0.16,0.79 -0.42,2.09 -0.92,4.21 -1.49,6.37 -0.06,0.23 -0.14,0.44 -0.19,0.67 -3.91,14.48 -11.03,30.09 -20.31,45.76 l -5.44,9.79 -0.26,-0.53 c -22.15,34.32 -53.78,68.06 -84.11,90.31 -47.54,34.86 -100.26,61.81 -137.18,78.67 10.15,21.27 17.44,43.14 21.66,64.98 10.53,6.79 30.9,15.33 52.87,17.5 13.79,1.41 24.12,-0.85 34.1,-3.03 12.51,-2.72 25.43,-5.52 40.79,1.02 15.4,6.59 27.06,21.06 30.43,37.77 3.35,16.53 -1.74,32.83 -14.32,45.84 l -0.22,0.23 -0.21,0.2 c -26.67,24.31 -54.22,33.66 -81.91,27.78 -12.18,-2.59 -23.47,-8.01 -33.76,-15.02 0.2,3.48 0.3,6.93 0.27,10.27 -0.41,48.61 -21.67,82.01 -21.67,82.01 0,0 -9.1,-28.84 -46.45,-34.63 -18.83,21.91 -42.11,38.41 -68.23,49.42 -52.98,32.76 -143.52,54.49 -273.44,-29.36 -128.75,-88.14 -125.04,-186.45 -110.89,-235.52 -0.3,-11.88 0.32,-23.58 1.92,-34.98 -10.87,-13.67 -30.16,-32.09 -52.45,-26.88 12.13,-40.24 87.99,-112.77 152.16,-113.45 19.57,-9.73 40.94,-16.2 63.37,-19.41 -4.2,-6.41 -7.66,-13.29 -10.07,-20.63 -8.85,-26.88 -2.53,-55.3 18.76,-84.43 l 0.16,-0.24 0.21,-0.22 c 11.59,-13.93 27.22,-20.74 44.02,-19.21 16.97,1.56 32.62,11.58 40.83,26.18 8.17,14.57 6.78,27.73 5.43,40.43 -1.08,10.18 -2.21,20.7 0.66,34.26 2.54,11.99 7.19,23.7 12.22,33.37 38.37,11.53 76.28,31.43 110.44,59.79 0.03,0.01 0.06,0.04 0.08,0.07 18.18,-16.62 40.47,-38.89 60.94,-61.16 -1.67,-18.93 5.47,-39.48 20.03,-56.28 0.05,-0.06 0.07,-0.13 0.13,-0.18 0.18,-0.22 0.39,-0.4 0.59,-0.61 1.94,-2.18 3.99,-4.26 6.11,-6.25 0.38,-0.35 0.72,-0.7 1.1,-1.03 2.4,-2.18 4.9,-4.29 7.6,-6.25 0.01,-0.02 0.02,-0.03 0.04,-0.03 0,0 0.02,0 0.02,-0.01 35.03,-25.55 80.65,-22.84 101.66,5.99 3.96,5.45 6.8,11.6 8.56,18.15 4.43,-6.19 9.03,-12.57 13.77,-18.89 l -0.29,-0.07 9.77,-12.22 c 6.17,-7.72 17.01,-21.25 30.51,-31.56 0.34,-0.26 0.69,-0.52 1.02,-0.79 0.06,-0.05 0.13,-0.07 0.19,-0.13 16.31,-12.35 33.58,-17.63 51.44,-8.61 0.72,0.33 1.43,0.77 2.15,1.16 0.46,0.28 0.92,0.49 1.39,0.78 l 0.2,0.13 0.23,0.14 0.42,0.3 c 1.35,1.07 2.63,2.17 3.84,3.34 8.4,8.17 12.52,19.34 12.49,32.94 0,0.2 0.03,0.39 0.02,0.57 0,0.11 0,0.23 0,0.34 -0.02,1.17 -0.08,2.35 -0.16,3.55 v 0" /><path
         id="path162"
         style="fill:#47a9e3;fill-opacity:1;fill-rule:evenodd;stroke:none"
         d="m 3266.76,3862.31 c -8.74,12.54 -14.14,26.06 -16.83,39.58 -1.14,0.86 -2.31,1.73 -3.48,2.54 -58.11,-7.07 -109.3,-4.75 -151.7,1.51 -28.68,-19.68 -49.67,-50.33 -57.3,-86.14 2.14,-61.84 31.36,-115.29 73.51,-143.03 -23.59,21.24 -38.67,53.57 -38.67,89.83 0,63.95 46.9,115.8 104.76,115.8 57.87,0 104.78,-51.85 104.78,-115.8 0,-10.12 -1.2,-19.91 -3.39,-29.25 2.24,0.83 4.5,1.65 6.79,2.41 6.62,19.81 10.13,40.33 10.13,60.95 0,13 -1.4,26.06 -4.28,38.99 -9.83,6.6 -18.29,13.99 -24.32,22.61 v 0" /><path
         id="path164"
         style="fill:#47a9e3;fill-opacity:1;fill-rule:evenodd;stroke:none"
         d="m 3183.71,3419.54 v 0 c 0,0 0,0 0,0 v 0" /><path
         id="path166"
         style="fill:#47a9e3;fill-opacity:1;fill-rule:evenodd;stroke:none"
         d="m 3218.47,3499.73 c -0.41,-0.19 -0.77,-0.41 -1.2,-0.6 -12.46,-6.47 -34.57,-16.84 -54.14,-20.61 -6.22,-1.18 -12.66,-2.15 -18.92,-2.93 10.96,-6.87 20.38,-16.58 27.57,-28.22 0.1,-0.16 0.23,-0.25 0.32,-0.39 0.15,-0.24 0.28,-0.51 0.42,-0.77 0.41,-0.69 0.81,-1.4 1.22,-2.12 1.15,-2 2.22,-4.04 3.23,-6.14 0.19,-0.42 0.39,-0.84 0.58,-1.25 1.1,-2.39 2.13,-4.86 3.06,-7.37 0.12,-0.35 0.25,-0.68 0.38,-1.02 1.01,-2.84 1.93,-5.74 2.72,-8.77 1.21,-4.57 2.07,-9.16 2.63,-13.75 22.34,-0.99 44.87,7.59 56.13,12.75 0.37,0.16 0.79,0.35 1.15,0.51 -0.95,4.11 -1.95,8.5 -1.95,8.51 -6.4,24.8 -14.53,49.27 -23.2,72.17 v 0" /><path
         id="path168"
         style="fill:#47a9e3;fill-opacity:1;fill-rule:evenodd;stroke:none"
         d="m 3196.32,3553.08 c -4.81,10.71 -9.52,20.62 -13.87,29.55 -0.41,-0.2 -0.78,-0.43 -1.19,-0.64 -15.79,-8.49 -32.64,-15.71 -50.43,-21.43 -8.65,-2.77 -17.38,-5.12 -26.12,-7.09 -0.46,-0.1 -0.9,-0.24 -1.35,-0.33 1.47,-7.19 2.45,-15.24 2.75,-24.2 0.44,0 0.9,0 1.37,0 7.1,-0.02 17.86,0.38 32.1,2.06 23.74,2.81 44.96,11.12 55.7,21.12 0.35,0.33 0.7,0.65 1.04,0.96 v 0" /><path
         id="path170"
         style="fill:#47a9e3;fill-opacity:1;fill-rule:evenodd;stroke:none"
         d="m 2893.75,3859.78 c -1.82,-1.39 -3.62,-2.73 -5.42,-4.06 -6.68,-4.91 -13.24,-9.22 -19.58,-12.99 -12.97,-7.75 -24.97,-13.28 -35.09,-17.18 -6.06,-18.27 -9.39,-36.93 -9.92,-55.5 11.07,30.96 30.89,52.36 53.89,55.02 1.6,0.16 3.2,0.32 4.84,0.32 7.75,0 15.19,-2.18 22.15,-6.1 12.54,-7.11 23.41,-20.04 31.44,-36.86 -0.18,0.51 -0.31,1.02 -0.48,1.55 -9.71,29.76 -24.44,55.64 -41.83,75.8 v 0" /><path
         id="path172"
         style="fill:#47a9e3;fill-opacity:1;fill-rule:evenodd;stroke:none"
         d="m 3278.44,3737.35 c -1.05,-4.51 -2.37,-8.9 -3.9,-13.18 -1.82,-5.05 -3.93,-9.95 -6.34,-14.63 -5.47,-10.68 -12.42,-20.29 -20.57,-28.51 -1.25,-1.26 -2.51,-2.47 -3.81,-3.65 -0.2,-0.2 -0.43,-0.4 -0.64,-0.59 2.08,1.37 4.14,2.82 6.18,4.31 4.55,3.38 8.9,7.08 13.09,11.04 0.1,0.21 0.25,0.39 0.36,0.58 3.98,6.29 7.61,12.75 10.89,19.32 2.39,4.75 4.6,9.59 6.61,14.44 1.79,4.4 3.44,8.82 4.92,13.28 -2.29,-0.76 -4.55,-1.58 -6.79,-2.41 v 0" /><path
         id="path174"
         style="fill:#f8db18;fill-opacity:1;fill-rule:evenodd;stroke:none"
         d="m 3128.6,3987.24 c -0.04,0.01 -0.11,0.01 -0.15,0.04 -3.39,0.66 -6.78,1.25 -10.21,1.77 -3.24,0.49 -6.46,0.93 -9.7,1.3 -0.07,0.02 -0.13,0.03 -0.18,0.03 -35.92,4.05 -74.13,0.64 -111.92,-11.5 -49.9,-16.03 -93.3,-45.59 -124.24,-83.72 -1.21,-1.48 -2.32,-3 -3.49,-4.49 -0.86,-1.13 -1.77,-2.24 -2.62,-3.38 -0.3,-0.41 -0.64,-0.82 -0.94,-1.23 -4.74,-6.46 -9.14,-13.13 -13.14,-20.01 -2.03,-3.48 -3.97,-7 -5.8,-10.57 -2.47,-4.8 -4.69,-9.67 -6.76,-14.57 7.02,3.16 14.72,7.08 22.85,11.9 6.4,3.78 13.05,8.13 19.83,13.14 1.18,0.85 2.35,1.72 3.53,2.62 1.53,1.18 3.08,2.36 4.64,3.61 1.46,1.19 2.92,2.41 4.41,3.63 21.9,18.39 44.49,43.69 63.93,78.42 l 2.87,5.14 5.12,-2.91 c 0.62,-0.35 30.52,-16.85 82.85,-29.69 0.06,0 0.1,-0.02 0.17,-0.04 1.92,-0.46 3.91,-0.93 5.89,-1.38 2.08,-0.49 4.12,-0.97 6.26,-1.43 0.06,-0.02 0.13,-0.04 0.19,-0.05 14.93,-3.25 31.46,-6.1 49.39,-8.21 34.47,-4.07 74.27,-5.31 118.45,-1.09 6,0.58 12.06,1.26 18.23,2.05 -0.12,1.94 -0.16,3.86 -0.16,5.81 -30.12,32.98 -72.12,55.53 -119.3,64.81 v 0" /><path
         id="path176"
         style="fill:#f8db18;fill-opacity:1;fill-rule:evenodd;stroke:none"
         d="m 2747.18,3897.41 c -10.8,-7.98 -36.12,-32.93 -17.29,-79.68 13.29,-33.02 40.42,-50.57 66.7,-61.1 -1.45,37.46 7.09,75.64 25.4,111.3 3.04,5.91 6.39,11.67 9.91,17.35 -25.96,20.34 -57.27,29.05 -84.72,12.13 v 0" /><path
         id="path178"
         style="fill:#f8db18;fill-opacity:1;fill-rule:evenodd;stroke:none"
         d="m 3430.51,3882.77 c -11.3,58.04 -75.44,124.71 -131.82,96.32 -8.22,-5.04 -24.38,-17.96 -27.57,-41.84 -0.89,-6.74 -0.7,-14.37 0.93,-22.94 0.02,-0.08 0.03,-0.16 0.04,-0.24 0.39,-1.87 0.81,-3.78 1.31,-5.74 0.56,-2.09 1.11,-4.19 1.84,-6.4 1.35,-4.05 3,-7.81 4.76,-11.46 0.99,-2.06 2.02,-4.07 3.11,-6 4.22,-7.29 9.22,-13.77 14.81,-19.48 5.77,-5.92 12.16,-11.07 18.81,-15.56 17.45,-11.76 36.9,-19.09 52.99,-24.46 32.5,-10.84 65,-42.76 65,-42.76 3.24,13.05 5.73,49.5 -4.21,100.56 v 0" /><path
         id="path180"
         style="fill:#ea1444;fill-opacity:1;fill-rule:evenodd;stroke:none"
         d="m 2033.84,4112.25 c -7.07,3.98 -14.94,7.11 -23.57,9.26 -21.5,4.85 -51.42,6.5 -72.15,-13.06 -12.79,-12.07 -19.54,-27.1 -20.05,-44.67 -0.67,-22.97 9.92,-48.32 28.34,-67.83 7.78,-8.27 16.27,-13.81 25.06,-17.09 12.91,12.97 26.94,25.07 41.98,36.16 -6.79,8.26 -15.19,21.46 -16.43,37.38 -1.14,14.6 3.76,28.33 14.55,40.83 5.86,6.79 13.53,13.14 22.27,19.02 v 0" /><path
         id="path182"
         style="fill:#ea1444;fill-opacity:1;fill-rule:evenodd;stroke:none"
         d="m 2148.55,4130.38 c -15.48,-1.87 -46.26,-9.84 -73.9,-22.3 -3.71,-1.68 -7.38,-3.4 -10.92,-5.23 -3.64,-1.88 -7.13,-3.85 -10.49,-5.89 -9.57,-5.76 -17.95,-12.14 -23.94,-19.06 -6.05,-6.99 -9.01,-14.04 -9.01,-21.47 0,-0.69 0.04,-1.39 0.08,-2.1 0.83,-10.99 7.66,-20.48 12.45,-25.92 9.35,6.01 19,11.66 28.98,16.88 3.32,1.74 6.71,3.35 10.08,4.98 3.77,1.84 7.57,3.61 11.39,5.33 3.77,1.65 7.52,3.34 11.31,4.87 20.83,8.47 42.15,14.97 63.63,19.42 -0.72,2.22 -1.44,4.57 -2.16,7.08 -4.89,15.11 -6.82,32.15 -7.5,43.41 v 0" /><path
         id="path184"
         style="fill:#ea1444;fill-opacity:1;fill-rule:evenodd;stroke:none"
         d="m 2561.71,3988.6 c -17.9,0.5 -47.89,1.36 -79.38,24.33 -33.41,24.37 -67.39,69.52 -94.69,105.81 -13.53,17.99 -25.21,33.51 -33.1,41.39 -16.06,16.07 -99.16,93.19 -157.87,34.49 -18.18,-18.19 -23.74,-40.85 -23.74,-61.81 0,-17.6 3.89,-33.85 7.52,-45.22 0.42,-1.31 0.83,-2.55 1.24,-3.73 0.17,0.03 0.35,0.05 0.52,0.08 47.42,6.48 94.92,3.16 138.77,-10.56 62.74,-19.61 113.37,-59.36 143.58,-112.3 30.93,-0.08 58.72,3.6 76.27,10.06 15.09,5.59 22.98,12.66 25.95,17.27 -1.65,0.07 -3.43,0.14 -5.07,0.19 v 0" /><path
         id="path186"
         style="fill:#f57e8f;fill-opacity:1;fill-rule:evenodd;stroke:none"
         d="m 2568.88,3524.58 c -22.28,19.9 -46.1,38.28 -69.28,54.65 0.06,-0.59 0.12,-1.25 0.17,-1.91 1,-13.61 -2.6,-40.92 -38.29,-68.68 10.44,-0.94 21.05,-3.75 31.36,-8.38 0.11,-0.03 0.26,-0.05 0.37,-0.11 0.54,-0.25 1.04,-0.53 1.57,-0.79 1.68,-0.79 3.33,-1.6 4.99,-2.49 0.96,-0.52 1.9,-1.08 2.85,-1.62 1.48,-0.86 2.95,-1.71 4.41,-2.64 1.3,-0.85 2.56,-1.77 3.84,-2.65 1.07,-0.74 2.16,-1.47 3.22,-2.26 2.26,-1.7 4.44,-3.49 6.56,-5.36 0.11,-0.1 0.21,-0.17 0.33,-0.27 3.9,-3.45 7.45,-7.14 10.73,-10.96 20.85,12.71 36.21,34.3 43.34,45.77 0.22,0.39 0.5,0.82 0.71,1.17 -3.32,3.15 -6.87,6.51 -6.88,6.53 v 0" /><path
         id="path188"
         style="fill:#f57e8f;fill-opacity:1;fill-rule:evenodd;stroke:none"
         d="m 2426.66,3625.91 -0.06,0.39 c -7.22,4.27 -13.96,8.13 -20.17,11.62 -0.35,-0.36 -0.72,-0.71 -1.07,-1.06 -14.26,-14.68 -29.96,-28.3 -46.9,-40.61 -1.64,-1.19 -3.29,-2.35 -4.95,-3.53 -1.64,-1.15 -3.33,-2.27 -5,-3.4 -9.98,-6.76 -20.33,-13.08 -31.04,-18.92 -0.47,-0.26 -0.94,-0.52 -1.41,-0.77 6.43,-6.29 13.45,-13.7 20.8,-21.83 l 0.92,0.08 c 0.02,0 0.42,0.03 0.99,0.1 3.32,0.4 15.19,2.08 30.01,6.91 1.9,0.62 3.84,1.29 5.82,2 1.88,0.7 3.78,1.43 5.72,2.22 5.16,2.14 10.49,4.65 15.76,7.61 26.74,15.05 33.44,39.39 30.8,57.73 -0.07,0.48 -0.13,0.98 -0.22,1.46 v 0" /><path
         id="path190"
         style="fill:#f57e8f;fill-opacity:1;fill-rule:evenodd;stroke:none"
         d="m 1978.39,3862.71 c -10.19,-8.98 -21.45,-19.14 -32.86,-29.82 -10.49,-9.84 -21.1,-20.08 -31.1,-30.32 -2.71,-2.79 -5.37,-5.55 -7.97,-8.32 -4.86,-43.44 2.58,-86 22.05,-123.19 2.74,-5.24 5.76,-10.28 8.9,-15.2 -1.17,4.66 -2.25,9.41 -3.16,14.23 -14.16,73.99 7.78,140.33 48.98,148.22 15.49,2.96 31.5,-2.78 46.2,-15.02 -14.52,23.6 -31.89,43.85 -51.04,59.42 v 0" /><path
         id="path192"
         style="fill:#f57e8f;fill-opacity:1;fill-rule:evenodd;stroke:none"
         d="m 2319.93,3699.68 c -69.93,0 -126.6,56.69 -126.6,126.61 0,48.91 27.79,91.33 68.43,112.39 9,4.66 18.62,8.28 28.72,10.67 9.46,2.26 19.31,3.49 29.45,3.49 10.15,0 19.98,-1.23 29.43,-3.49 10.84,-2.58 21.15,-6.52 30.72,-11.71 39.51,-21.4 66.37,-63.24 66.37,-111.35 0,-3.91 -0.2,-7.77 -0.55,-11.58 -0.77,-8.46 -2.37,-16.65 -4.7,-24.53 -15.55,-52.33 -63.95,-90.5 -121.27,-90.5 z m 148.09,126.13 c 0.52,6.67 0.75,13.3 0.7,19.89 -0.25,32.33 -7.48,63.6 -21.53,91.94 -0.66,1.33 -1.27,2.64 -1.95,3.96 -1.37,2.63 -2.83,5.21 -4.33,7.75 -2.32,3.99 -4.76,7.9 -7.35,11.73 -6.64,9.85 -14.18,19.07 -22.48,27.68 -34.96,0.57 -97.12,-1.05 -139.26,-2.7 l -3.09,-0.12 -1.9,2.43 c -3.65,4.7 -7.51,8.94 -11.45,12.85 -3.62,-1.43 -7.15,-2.99 -10.64,-4.63 -2.84,-1.33 -5.65,-2.75 -8.4,-4.2 5.76,-6.51 9.71,-11.01 9.71,-11.01 l -3.85,-0.65 -6.91,-1.12 c -0.16,-0.04 -2.4,-0.43 -6.18,-1.1 -4.62,-0.86 -11.57,-2.19 -20.08,-3.99 -38.23,-30.36 -62.49,-75.39 -62.49,-125.69 0,-18.23 3.22,-35.74 9.1,-52.13 23.58,-65.87 90.57,-113.38 169.57,-113.38 15.19,0 29.94,1.77 44.04,5.07 4.16,0.98 8.26,2.13 12.33,3.37 4.7,1.45 9.35,3.05 13.87,4.86 13.6,5.38 26.31,12.3 37.91,20.49 0.76,1.3 1.44,2.65 2.16,3.96 1.36,2.46 2.7,4.93 3.98,7.42 0.93,1.8 1.84,3.62 2.73,5.45 0.89,1.83 1.72,3.65 2.56,5.48 4.96,10.71 9.29,21.65 12.77,32.8 0.32,1.01 0.57,1.99 0.87,2.98 1.25,4.19 2.38,8.38 3.41,12.57 3.09,12.71 5.17,25.41 6.18,38.04 v 0" /><path
         id="path194"
         style="fill:#bc362a;fill-opacity:1;fill-rule:evenodd;stroke:none"
         d="m 2201.37,3653.35 c 0,0 -24.4,-13.56 -10.6,-62.12 50.29,-3.44 20.96,59.66 10.6,62.12 v 0" /><path
         id="path196"
         style="fill:#f48523;fill-opacity:1;fill-rule:evenodd;stroke:none"
         d="m 2760.63,3397.1 c -61.67,107.99 -225.63,263.13 -299.07,316.78 -10.98,-20.86 -24.42,-40.7 -40.01,-59.15 41.85,-23.76 105.96,-63.72 161.96,-113.75 33.33,-29.78 66.86,-73.3 89.11,-116.43 l 0.37,0.59 5.05,-11.62 c 5.04,-10.68 9.31,-21.25 12.65,-31.5 7.72,1.92 15.53,3.78 23.38,5.58 l -23.34,52.31 41.27,-48.39 c 9.52,2.02 19.09,3.88 28.63,5.58 v 0" /><path
         id="path198"
         style="fill:#f48523;fill-opacity:1;fill-rule:evenodd;stroke:none"
         d="m 2566.07,3359.18 c -4.88,8.02 -9.58,16.09 -14.13,23.9 -2.74,-7.42 -6.78,-14.36 -12.2,-20.46 -8.4,-9.48 -19.51,-16.16 -32.14,-19.7 5.33,-9.05 8.65,-14.71 9.29,-15.79 8.61,3.31 28.97,10.95 56.52,20.24 l -7.66,11.76 0.32,0.05 v 0" /><path
         id="path200"
         style="fill:#f48523;fill-opacity:1;fill-rule:evenodd;stroke:none"
         d="m 2191.31,4025.11 c -1.36,1.56 -2.71,3.1 -4.07,4.61 -1.34,1.54 -2.66,3.01 -3.93,4.48 -6.69,7.55 -12.45,14.08 -15.7,17.77 -0.97,1.09 -1.73,1.94 -2.2,2.48 -24.22,-4.88 -48.27,-12.61 -71.59,-23.02 -4.56,-2.03 -9.07,-4.17 -13.56,-6.4 -2.07,-1.03 -4.18,-2.01 -6.24,-3.1 -3.29,-1.72 -6.49,-3.55 -9.71,-5.36 -5.35,-3.02 -10.63,-6.15 -15.78,-9.42 -14.49,-9.21 -28.16,-19.35 -40.83,-30.36 -4.88,-4.25 -9.59,-8.66 -14.19,-13.14 -3.76,-3.67 -7.42,-7.41 -10.98,-11.24 -12.03,-12.91 -22.87,-26.66 -32.37,-41.09 -2.15,-3.27 -4.23,-6.6 -6.25,-9.94 -0.58,-0.93 -1.15,-1.88 -1.7,-2.83 -0.12,-0.18 -0.23,-0.36 -0.34,-0.54 -0.93,-1.58 -1.87,-3.15 -2.75,-4.76 -0.38,-0.67 -0.73,-1.36 -1.09,-2.04 -0.61,-1.08 -1.18,-2.19 -1.75,-3.27 -8.18,-15.31 -15,-31.2 -20.1,-47.51 -1.39,-4.5 -2.63,-9.01 -3.77,-13.51 -0.98,-3.85 -1.84,-7.71 -2.63,-11.57 -0.02,-0.14 -0.05,-0.25 -0.08,-0.41 0.11,0.13 0.22,0.24 0.35,0.36 8.52,8.61 17.35,17.17 26.11,25.4 7.25,6.82 14.42,13.4 21.32,19.64 3.78,3.4 7.48,6.7 11.05,9.85 1.57,1.4 3.14,2.76 4.66,4.1 1.24,1.1 2.45,2.15 3.65,3.2 0.34,0.31 0.69,0.6 1.02,0.89 15.86,13.81 28.16,24 32.81,27.82 0.74,6.98 3.64,26.6 14.2,51.05 2.25,5.24 4.89,10.68 7.9,16.28 4.11,7.63 9,15.51 14.76,23.49 1.13,1.55 2.2,3.09 3.39,4.63 l 5.8,7.61 2.15,2.82 0.45,-2.11 0.19,-0.87 2.1,-9.85 c 0.27,-1.17 0.69,-2.59 1.24,-4.18 1.1,-3.24 2.76,-7.22 4.73,-11.6 5.56,-12.36 13.66,-27.77 19.08,-37.72 14.6,9.17 34.25,17.04 54.41,23.55 2.51,0.81 5.03,1.63 7.56,2.38 2.58,0.8 5.16,1.54 7.74,2.3 25.65,7.41 50.19,12.57 64.41,15.27 0.62,0.11 1.32,0.25 1.89,0.36 -3.26,3.69 -9.85,11.16 -17.48,19.78 -4.43,5.04 -9.21,10.44 -13.88,15.72 v 0" /><path
         id="path202"
         style="fill:#f48523;fill-opacity:1;fill-rule:evenodd;stroke:none"
         d="m 2236.66,4060.68 c -3.88,0.11 -7.76,0.19 -11.66,0.15 -3.76,-0.04 -7.55,-0.22 -11.34,-0.39 -5.76,-0.28 -11.55,-0.68 -17.34,-1.28 -4.49,-0.48 -9,-1.05 -13.49,-1.72 -2.46,-0.36 -4.91,-0.73 -7.36,-1.15 -1.93,-0.32 -3.83,-0.69 -5.75,-1.06 -0.77,-0.14 -1.54,-0.27 -2.31,-0.42 l 2.93,-0.38 1.41,-0.2 9.06,-1.19 c 0.42,-0.06 2.7,-0.38 6.34,-1.19 2.99,-0.66 6.91,-1.64 11.51,-3.07 2.06,-0.64 4.26,-1.38 6.57,-2.21 0.38,-0.13 0.77,-0.27 1.15,-0.43 1.78,-0.64 3.61,-1.36 5.5,-2.13 16.68,-6.81 37.55,-18.56 56.01,-38.43 2.17,-2.32 4.31,-4.77 6.42,-7.33 16.67,0.63 77.8,2.81 121.4,2.68 0.91,0 1.81,0 2.7,-0.02 -23.82,20.95 -52.72,37.13 -85.31,47.31 -24.46,7.66 -50.2,11.73 -76.44,12.46 v 0" /><path
         id="path204"
         style="fill:#f9c6ad;fill-opacity:1;fill-rule:evenodd;stroke:none"
         d="m 3424.11,3673.67 c -15.36,28.8 -36.4,46.38 -62.6,52.2 -17.49,3.88 -35.76,2.33 -53.05,-1.85 -5.86,-15.82 -13.49,-31.16 -22.72,-45.78 10.44,-1.79 21.32,-4.42 31.83,-8.05 18.39,-6.33 30.34,-14.48 40.88,-21.67 11.41,-7.75 19.64,-13.36 32.63,-14.32 12.92,-0.95 25.79,4.39 32.04,13.28 2.74,3.9 4.1,8.23 4.1,12.96 0,4.11 -1.06,8.54 -3.11,13.23 v 0" /><path
         id="path206"
         style="fill:#f9c6ad;fill-opacity:1;fill-rule:evenodd;stroke:none"
         d="m 2884.06,3594.88 c -10.51,-6.17 -20.19,-13.7 -28.03,-23.02 -13.25,-15.73 -19.91,-35.13 -19.91,-57.82 0,-6.93 0.66,-14.19 1.91,-21.74 2.61,-10.67 8.21,-17.47 16.65,-20.15 10.37,-3.26 23.84,0.31 33.53,8.93 9.73,8.62 12.87,18.07 17.2,31.17 4.01,12.12 8.56,25.87 19.32,42.07 2.88,4.33 6,8.48 9.18,12.55 -6.05,2.52 -12.05,5.21 -17.88,8.2 -11.35,5.84 -21.98,12.48 -31.97,19.81 v 0" /><path
         id="path208"
         style="fill:#f9c6ad;fill-opacity:1;fill-rule:evenodd;stroke:none"
         d="m 3046.1,3622.17 c -0.29,-0.54 -0.6,-1.06 -0.92,-1.56 -0.89,-1.47 -1.94,-2.82 -3.15,-4.06 -0.32,-0.32 -0.63,-0.64 -0.96,-0.95 -2.86,-2.62 -6.49,-4.6 -11.09,-5.68 -12.65,-2.99 -22.68,2.96 -30.36,11.8 -5.53,6.38 -9.83,14.23 -13.03,21.36 -4.66,10.54 -6.86,19.46 -6.86,19.46 0,0 4.52,-9.47 11.68,-19.41 2.31,-3.22 4.87,-6.46 7.68,-9.48 7.99,-8.62 17.66,-15.14 27.51,-12.46 23.94,6.53 17.61,56.98 17.61,56.98 0,0 12.56,-35.91 1.89,-56 z m 130.95,22.02 c -0.04,0 -0.08,0 -0.11,0 -0.05,0 -0.07,0 -0.11,0 -1.44,0 -2.87,0.08 -4.31,0.13 -0.53,0 -1.05,0.03 -1.59,0.05 -3.7,0.17 -7.37,0.48 -10.99,0.97 -1.24,0.17 -2.47,0.37 -3.71,0.57 -24.61,4.05 -47.37,15.2 -66.8,31.7 0.49,-0.38 0.98,-0.71 1.45,-1.07 -20.45,17.01 -37.24,39.86 -48.77,66.56 0.38,-1.08 0.76,-2.15 1.18,-3.21 -11.76,25.95 -18.44,55.67 -18.44,87.25 0,32.22 7,62.52 19.2,88.85 -40.48,10.2 -67.62,22.44 -78.13,27.67 -19.51,-33.53 -41.66,-58.27 -63.21,-76.57 18.41,-21.28 33.88,-48.37 44.01,-79.48 18.13,-55.65 14.99,-111.07 -4.65,-149.54 -2.28,-4.46 -4.8,-8.66 -7.52,-12.64 -3.57,-5.22 -7.48,-10 -11.76,-14.27 -1.89,-1.9 -3.85,-3.7 -5.88,-5.41 3.77,-2.25 7.6,-4.43 11.56,-6.45 8.05,-4.13 16.38,-7.73 24.91,-10.88 3.82,-1.4 7.67,-2.72 11.56,-3.94 4.08,-1.27 8.2,-2.41 12.34,-3.47 30.84,-7.8 63.71,-9.65 96.57,-5.39 0.47,0.06 0.96,0.14 1.45,0.22 3.32,0.43 6.63,0.91 9.95,1.48 3.16,0.56 6.31,1.2 9.48,1.85 0.45,0.1 0.89,0.19 1.35,0.28 8.85,1.91 17.66,4.22 26.42,7.04 16.41,5.28 31.96,11.94 46.48,19.78 0.41,0.21 0.78,0.43 1.17,0.66 2.76,1.51 5.49,3.05 8.18,4.63 2.69,1.61 5.35,3.24 7.94,4.91 0.41,0.24 0.8,0.53 1.21,0.78 18.19,11.81 34.5,25.51 48.57,40.69 0.34,0.37 0.68,0.78 1.03,1.16 -1.09,-0.58 -2.21,-1.12 -3.33,-1.65 -17.53,-8.52 -36.66,-13.26 -56.7,-13.26 v 0" /><path
         id="path210"
         style="fill:#f9c6ad;fill-opacity:1;fill-rule:evenodd;stroke:none"
         d="m 1891.02,3848.3 c 6.23,19.88 14.65,39.18 24.99,57.64 0.15,0.26 0.27,0.53 0.43,0.78 -15.56,11.42 -34.81,26.03 -54.9,42.46 l -24.14,20.37 c -37.92,32.47 -77.14,66.05 -98.49,48.7 -7.44,-6.04 -11.21,-13.98 -11.56,-24.26 -0.02,-0.5 -0.02,-1.01 -0.02,-1.55 0,-28.46 25.59,-70.57 65.76,-107.92 7.13,-6.64 15.02,-12.73 23.35,-18.31 21.99,-14.73 47.15,-25.78 70.4,-32.88 1.26,5 2.63,9.99 4.18,14.97 v 0" /><path
         id="path212"
         style="fill:#f9c6ad;fill-opacity:1;fill-rule:evenodd;stroke:none"
         d="m 2575.42,3890.24 c -31.12,-3.35 -59.49,-26.85 -80.34,-49.96 -0.21,-13.74 -1.54,-27.67 -4.01,-41.58 16.55,5.81 37.65,10.14 58.73,10.08 19.87,-0.03 34.61,-4.84 46.47,-8.69 13.34,-4.35 22.16,-7.21 34,-3.54 11.58,3.59 21.45,13.56 25.11,25.43 0.93,2.91 1.62,6.41 1.62,10.31 0,6.88 -2.15,15.03 -8.82,23.62 -23.01,25.47 -47.49,37.05 -72.76,34.33 v 0" /><path
         id="path214"
         style="fill:#f9c6ad;fill-opacity:1;fill-rule:evenodd;stroke:none"
         d="m 2229.62,3603.23 c -2.27,-10.18 -8.99,-17.27 -19.43,-20.53 -12.5,-3.9 -34.63,-3.89 -52.71,3.7 -30.03,12.57 -52.24,40.69 -54.33,54.53 l -0.23,1.54 1.52,-0.36 c 0.26,-0.07 26.42,-6.25 48.6,7.24 13.86,8.44 23.3,22.69 28.07,42.38 l 0.42,1.73 1.3,-1.22 c 33.63,-30.76 51.99,-65.71 46.79,-89.01 z m 146.82,75.57 c -0.71,-0.2 -1.46,-0.37 -2.2,-0.56 -3.03,-0.78 -6.09,-1.49 -9.15,-2.13 -0.07,0 -0.13,-0.03 -0.19,-0.03 -0.85,-0.19 -1.7,-0.37 -2.54,-0.52 -2.68,-0.51 -5.36,-0.96 -8.06,-1.35 -7.73,-1.15 -15.54,-1.89 -23.45,-2.08 -110.99,-2.76 -203.65,90.05 -206.55,206.89 -0.67,26.56 3.4,52.09 11.33,75.74 -18.53,-6.41 -35.76,-13.96 -47.59,-22.51 l -5.5,-3.96 -3.31,5.91 c -1.82,3.23 -13.11,23.62 -21.24,41.3 -1.48,3.19 -2.85,6.31 -4.04,9.21 -4.48,-6.63 -8.25,-13.17 -11.54,-19.52 -17.73,-34.1 -19.9,-62.06 -19.91,-62.41 l -0.15,-2.67 -2.07,-1.67 c -0.41,-0.33 -13.81,-11.27 -32.64,-27.65 34.74,-28.9 63.77,-72.28 80.98,-122.59 0.39,-1.21 0.76,-2.41 1.14,-3.6 5.83,-14.02 10.5,-29.47 13.66,-45.95 7.51,-39.29 4.85,-76.44 -5.46,-103.79 -2.93,-11.31 -6.76,-22.06 -11.5,-32.04 61.27,-17.64 132.58,-14.26 200.79,13 0.64,0.26 1.29,0.52 1.93,0.78 8.12,3.3 16.18,6.96 24.17,10.94 2.12,1.05 4.25,2.05 6.38,3.16 8.62,4.51 16.95,9.4 25.06,14.56 1.84,1.15 3.67,2.32 5.47,3.52 1.64,1.07 3.24,2.19 4.84,3.29 1.68,1.14 3.38,2.26 5.03,3.41 1.64,1.18 3.24,2.41 4.88,3.62 12.92,9.54 25.02,19.88 36.24,30.9 0.36,0.35 0.71,0.72 1.08,1.1 2.55,2.52 5.08,5.04 7.53,7.64 2.4,2.56 4.78,5.16 7.1,7.8 0.35,0.38 0.72,0.76 1.07,1.15 8.16,9.35 15.65,19.1 22.54,29.18 -13.86,-7.79 -28.53,-13.82 -43.78,-17.98 -0.12,-0.03 -0.23,-0.07 -0.35,-0.09 v 0" /><path
         id="path216"
         style="fill:#f9c6ad;fill-opacity:1;fill-rule:evenodd;stroke:none"
         d="m 2316.44,3332.32 c -15.16,-3.23 -28.94,-12.11 -40.91,-23.19 -3.96,-21.7 -10.92,-42.97 -18.8,-57.49 -0.18,-1.5 -0.37,-3.02 -0.59,-4.5 13.06,5.8 29.27,10.71 45.84,12.36 16.76,1.66 29.64,-1.14 39.98,-3.36 11.36,-2.5 19.57,-4.27 29.42,-0.07 9.66,4.13 17.29,13.66 19.43,24.24 0.36,1.83 0.62,3.9 0.62,6.13 0,6.62 -2.22,14.72 -9.9,22.78 -21.85,19.83 -43.73,27.62 -65.09,23.1 v 0" /><path
         id="path218"
         style="fill:#f9c6ad;fill-opacity:1;fill-rule:evenodd;stroke:none"
         d="m 1945.07,2981.05 c -6.15,-7.43 -11.08,-15.59 -14,-24.46 -1.9,-5.83 -2.86,-11.78 -2.86,-17.89 0,-15.62 6.3,-32.16 18.76,-49.3 9.61,-11.41 20.38,-13.04 27.74,-12.36 10.78,0.98 21.06,7.54 26.2,16.7 3.13,5.57 4.09,10.75 4.09,16.49 0,3.93 -0.45,8.07 -0.96,12.78 -0.58,5.5 -1.24,11.69 -1.24,18.72 0,6.42 0.55,13.51 2.2,21.36 1.73,8.13 4.28,16.07 7.25,23.55 -22.68,-4.8 -45.29,-6.68 -67.18,-5.59 v 0" /><path
         id="path220"
         style="fill:#f9c6ad;fill-opacity:1;fill-rule:evenodd;stroke:none"
         d="m 2028.71,3066.07 c -24.99,-21.15 -62.04,21.86 -62.04,21.86 0,0 38.09,-29.23 54.72,-14.17 16.64,15.06 -9.11,53.15 -9.11,53.15 0,0 41.45,-39.79 16.43,-60.84 z m 168.28,84.89 c -10.81,-7.85 -22.74,-14.29 -35.49,-19.04 -0.74,-0.27 -1.49,-0.56 -2.23,-0.83 -4.72,-1.67 -9.58,-3.11 -14.5,-4.34 -4.32,-1.05 -8.69,-1.92 -13.13,-2.62 -0.6,-0.08 -1.19,-0.12 -1.77,-0.2 -6.84,-0.97 -13.83,-1.49 -20.94,-1.49 -55.52,0 -110.31,35.06 -135.95,86.08 -1.73,-3.06 -3.15,-5.15 -4.14,-6.09 -12.7,-11.7 -30.27,26.37 -30.27,26.37 0,0 15.42,-17.52 23.54,-14.22 4.66,1.9 25.11,60.15 41.72,109.55 -19.36,-9.75 -40.11,-20.95 -62.34,-33.82 -16.59,15.61 -74.19,42.94 -74.19,42.94 0,0 -12.7,-72.23 -7.81,-105.44 -11.66,-8 -25.06,-18.62 -39.35,-30.97 36.2,-6.27 80.62,-13.7 87.87,-13.7 12.53,0 3.65,28.29 3.65,28.29 13.93,-22.03 14.13,-39.2 8.06,-41.62 -0.72,-0.3 -3.48,-0.22 -7.73,0.13 23.46,-21.08 36.85,-50.46 36.85,-81.28 0,-31.14 -13.64,-60.62 -37.09,-81.58 9.14,-2 18.51,-3.4 28.11,-4.16 4.34,-0.35 8.75,-0.52 13.18,-0.59 5.07,-0.12 10.18,0 15.32,0.24 18.67,0.91 37.71,4.03 56.72,9.43 4.98,1.43 9.94,2.99 14.9,4.7 4.76,1.66 9.5,3.47 14.23,5.4 26.09,10.67 51.61,25.62 75.3,44.85 0.32,0.24 0.63,0.49 0.94,0.75 0.57,0.47 1.15,0.89 1.71,1.36 1.68,1.4 3.26,2.87 4.9,4.28 2.2,1.91 4.43,3.77 6.54,5.71 0.32,0.3 0.64,0.57 0.96,0.88 22.85,21.1 41.53,44.74 55.81,69.59 0.21,0.36 0.43,0.71 0.62,1.06 1.12,1.96 2.11,3.95 3.17,5.91 -1.97,-1.62 -3.96,-3.18 -6,-4.69 -0.38,-0.28 -0.79,-0.56 -1.17,-0.84 v 0" /><path
         id="path222"
         style="fill:#66c661;fill-opacity:1;fill-rule:evenodd;stroke:none"
         d="m 2220.21,3140.72 c -15.14,-26.84 -35,-52.33 -59.3,-75.1 -0.32,-0.31 -0.63,-0.6 -0.96,-0.91 7.43,-6.8 15.25,-14.3 23.12,-22.07 0.46,0.09 0.99,0.23 1.48,0.36 11.73,2.88 32.42,10.67 53.86,31.62 19.61,19.16 26.5,34.16 28.89,43.04 0.11,0.41 0.22,0.81 0.32,1.21 -17.1,8.98 -33.09,16.67 -46.8,22.93 -0.19,-0.36 -0.41,-0.69 -0.61,-1.08 v 0" /><path
         id="path224"
         style="fill:#66c661;fill-opacity:1;fill-rule:evenodd;stroke:none"
         d="m 2355.58,3064.77 c -11.04,8.07 -22.42,15.75 -33.83,22.99 -0.19,-0.36 -0.41,-0.73 -0.6,-1.09 -5.38,-9.65 -16.13,-26.06 -35.58,-46.06 4.71,-1.1 9.36,-2.63 13.94,-4.54 0.69,-0.29 1.36,-0.57 2.04,-0.86 1.41,-0.65 2.81,-1.29 4.2,-2.01 1.21,-0.61 2.4,-1.26 3.61,-1.93 0.98,-0.56 1.96,-1.07 2.93,-1.68 2.25,-1.37 4.45,-2.78 6.58,-4.34 l 0.01,-0.01 c 3.51,-2.56 6.73,-5.37 9.8,-8.31 16.55,12.36 27.69,31.77 32.66,41.89 0.17,0.35 0.35,0.71 0.53,1.04 -3.05,2.37 -6.28,4.89 -6.29,4.91 v 0" /><path
         id="path226"
         style="fill:#66c661;fill-opacity:1;fill-rule:evenodd;stroke:none"
         d="m 2149.89,3149.01 c -10.12,-3.39 -20.94,-5.32 -32.26,-5.32 -54.78,0 -99.17,43.06 -99.17,96.19 0,53.14 44.39,96.21 99.17,96.21 48.42,0 88.67,-33.66 97.37,-78.19 1.14,-5.82 1.8,-11.84 1.8,-18.02 0,-2.56 -0.2,-5.1 -0.4,-7.64 -1.8,-22.02 -11.23,-41.94 -25.75,-57.29 -0.32,-0.33 -0.62,-0.67 -0.92,-0.98 -2.23,-2.28 -4.54,-4.46 -6.98,-6.53 -4.02,-3.39 -8.32,-6.45 -12.87,-9.19 -5.58,-3.38 -11.54,-6.22 -17.79,-8.46 -0.73,-0.27 -1.46,-0.54 -2.2,-0.78 z m 19.18,-7.61 c 7.57,3.47 14.75,7.56 21.53,12.22 0.41,0.3 0.8,0.57 1.2,0.85 2.75,1.93 5.44,3.92 8.02,6.02 2.47,2.02 4.86,4.14 7.19,6.3 0.34,0.32 0.69,0.65 1.04,0.98 1.14,1.09 2.27,2.17 3.38,3.31 7.92,17.19 13.78,34.73 17.52,52.28 0.7,3.39 1.36,6.76 1.9,10.12 0.59,3.48 1.12,6.94 1.53,10.42 0.25,2.09 0.41,4.19 0.59,6.28 0.06,0.61 0.13,1.23 0.19,1.82 0.41,5.39 0.7,10.75 0.7,16.07 0,1.26 -0.05,2.5 -0.07,3.76 -0.11,5.29 -0.42,10.55 -0.94,15.75 -0.56,5.45 -1.33,10.87 -2.37,16.19 -10.3,17.22 -24.63,31.85 -41.76,42.63 -20.24,12.74 -44.33,20.19 -70.2,20.19 -7.69,0 -15.2,-0.69 -22.51,-1.94 -15.84,-5.83 -33.49,-12.95 -53,-21.75 -6.65,-4.67 -12.81,-9.95 -18.46,-15.72 -0.63,-0.66 -1.28,-1.31 -1.9,-1.97 -9.59,-23.67 -20.04,-48.97 -29.3,-70.27 -0.37,-0.87 -0.72,-1.73 -1.09,-2.56 -0.88,-2 -1.73,-3.98 -2.57,-5.9 -0.21,-0.45 -0.42,-0.98 -0.62,-1.42 -0.06,-1.04 -0.06,-2.07 -0.09,-3.1 -0.01,-0.58 -0.04,-1.16 -0.04,-1.76 0,-28.16 9.46,-54.1 25.4,-75.1 26.45,-22.9 60.37,-36.81 94.59,-36.81 9.02,0 17.83,0.87 26.38,2.45 0.61,0.11 1.23,0.21 1.85,0.33 4.68,0.92 9.29,2.08 13.78,3.43 5.37,1.64 10.6,3.6 15.69,5.81 0.81,0.36 1.63,0.73 2.44,1.09 v 0" /><path
         id="path228"
         style="fill:#66c661;fill-opacity:1;fill-rule:evenodd;stroke:none"
         d="m 1780.26,3160.09 c 0.43,-7.37 1.23,-14.62 2.5,-21.66 3.37,-18.73 9.68,-36.27 18.78,-52.29 -1.87,10.03 -2.53,19.94 -2.06,29.48 1.26,25.67 10.67,48.49 26.89,62.78 -8.18,1.22 -16.02,2.4 -23.05,3.46 -7.59,-6.92 -15.31,-14.21 -23.06,-21.77 v 0" /><path
         id="path230"
         style="fill:#ffffff;fill-opacity:1;fill-rule:evenodd;stroke:none"
         d="m 3246.06,3399.61 c -13.61,-5.84 -35.98,-13.41 -59.19,-12.73 -0.7,-10.15 -3.02,-19.92 -6.86,-28.84 -0.26,-9.07 -0.86,-19 -1.53,-29.72 -0.76,-12.25 -1.4,-24.1 -1.67,-35.2 13.12,-5.8 25.28,-9.15 36.29,-9.94 12.27,-0.88 24.32,2.26 33.55,5.78 2.58,16.34 3.92,34.29 3.92,52.71 0,19.26 -1.49,39 -4.51,57.94 v 0" /><path
         id="path232"
         style="fill:#ffffff;fill-opacity:1;fill-rule:evenodd;stroke:none"
         d="m 3131.51,3458.37 c -10.26,6.02 -21.05,7.82 -31.23,5.35 -0.22,-0.04 -0.44,-0.08 -0.65,-0.13 -0.28,-0.08 -0.54,-0.19 -0.82,-0.27 -3.81,-1.08 -7.39,-2.76 -10.7,-4.97 -5.39,-3.59 -10.02,-8.59 -13.71,-14.89 0,-0.01 -0.01,-0.01 -0.01,-0.03 -1.48,-2.53 -2.71,-5.22 -3.8,-8.01 -1.1,-2.78 -2.01,-5.66 -2.71,-8.63 -0.43,-1.78 -0.76,-3.56 -1.06,-5.36 0.21,-0.09 0.42,-0.16 0.64,-0.24 12.2,-4.64 29.54,-3.42 39.11,-1.69 0.47,0.08 0.95,0.17 1.37,0.26 4.73,0.92 13.09,2.61 21.52,6.01 0.8,0.32 1.61,0.66 2.41,1.02 7.13,3.17 14.01,7.69 18.55,14.12 -5.27,7.22 -11.67,13.22 -18.91,17.46 v 0" /><path
         id="path234"
         style="fill:#ffffff;fill-opacity:1;fill-rule:evenodd;stroke:none"
         d="m 3178,3275.48 c 0,0 -0.17,-2.21 -0.21,-5.74 -0.07,-4.27 0.04,-10.47 0.86,-16.97 0.39,-3.12 0.93,-6.29 1.71,-9.35 2.49,-9.77 7.18,-18.25 16.02,-19.5 18.7,-2.6 28.77,25.63 30.66,38.26 0.36,2.3 0.46,4.15 0.28,5.13 -33.39,-6.64 -49.32,8.17 -49.32,8.17 v 0" /><path
         id="path236"
         style="fill:#ffffff;fill-opacity:1;fill-rule:evenodd;stroke:none"
         d="m 3127.4,3405.84 c -0.22,0.49 -0.39,0.97 -0.62,1.46 -0.19,0.4 -0.31,0.79 -0.52,1.2 0,0 -0.61,-0.34 -1.66,-0.85 -0.57,-0.28 -1.29,-0.63 -2.14,-1.02 -8.99,-4.09 -32.58,-12.76 -52.89,-2.49 -0.19,-1.76 -0.25,-3.64 -0.23,-5.53 0.01,-7.02 1.33,-14.82 3.87,-22.17 3.39,-9.81 8.95,-18.68 16.55,-23.56 3.92,-2.5 8.35,-3.99 13.32,-3.9 15.2,0.95 36.39,24.43 25.62,53.83 -0.37,0.99 -0.85,2.03 -1.3,3.03 v 0" /><path
         id="path238"
         style="fill:#ffffff;fill-opacity:1;fill-rule:evenodd;stroke:none"
         d="m 3094.75,3905.94 c -13.74,2.02 -26.54,4.46 -38.38,7.12 -12.11,-25.26 -19.07,-54.61 -19.07,-85.92 0,-2.46 0.07,-4.9 0.15,-7.34 7.63,35.81 28.62,66.46 57.3,86.14 v 0" /><path
         id="path240"
         style="fill:#ffffff;fill-opacity:1;fill-rule:evenodd;stroke:none"
         d="m 3249.39,3904.8 c -0.99,-0.14 -1.95,-0.23 -2.94,-0.37 1.17,-0.81 2.34,-1.68 3.48,-2.54 -0.19,0.97 -0.38,1.93 -0.54,2.91 v 0" /><path
         id="path242"
         style="fill:#ffffff;fill-opacity:1;fill-rule:evenodd;stroke:none"
         d="m 2917.06,3757.04 c -5.24,3.38 -11.31,5.35 -17.75,5.35 -2.27,0 -4.47,-0.28 -6.62,-0.74 -14.15,-3 -25.44,-15.49 -28.83,-31.58 -0.7,-3.25 -1.09,-6.64 -1.09,-10.14 0,-5.12 0.82,-10.02 2.23,-14.56 4.69,-14.87 16.3,-25.87 30.33,-27.64 1.3,-0.16 2.61,-0.26 3.98,-0.26 6.25,0 12.13,1.83 17.26,5.05 11.48,7.14 19.28,21.22 19.28,37.41 0,15.95 -7.58,29.83 -18.79,37.11 v 0" /><path
         id="path244"
         style="fill:#ffffff;fill-opacity:1;fill-rule:evenodd;stroke:none"
         d="m 3182.05,3724.63 c 25.09,0 45.43,20.55 45.43,45.92 0,25.38 -20.34,45.93 -45.43,45.93 -25.08,0 -45.42,-20.55 -45.42,-45.93 0,-25.37 20.34,-45.92 45.42,-45.92 v 0" /><path
         id="path246"
         style="fill:#ffffff;fill-opacity:1;fill-rule:evenodd;stroke:none"
         d="m 2657.63,3401.41 c -15.51,33.59 -39.85,70.25 -67.75,100.39 -8.83,-13.6 -24.6,-34.12 -46.23,-47.63 5.53,-9.72 9.31,-19.95 11.23,-30.17 5.29,-8.45 10.82,-17.94 16.77,-28.18 6.77,-11.64 13.39,-22.79 19.91,-33.05 15.41,2.67 28.51,7.04 39.03,12.98 11.75,6.69 20.77,16.86 27.04,25.66 v 0" /><path
         id="path248"
         style="fill:#ffffff;fill-opacity:1;fill-rule:evenodd;stroke:none"
         d="m 2155.64,3796.7 c -5.88,16.39 -9.1,33.9 -9.1,52.13 0,50.3 24.26,95.33 62.49,125.69 -16.11,-3.41 -37.64,-8.47 -58.87,-15 -9.51,-24.73 -14.49,-51.83 -13.78,-80.19 0.73,-29.63 7.61,-57.6 19.26,-82.63 v 0" /><path
         id="path250"
         style="fill:#ffffff;fill-opacity:1;fill-rule:evenodd;stroke:none"
         d="m 2236.34,3992.39 c 2.75,1.45 5.56,2.87 8.4,4.2 3.49,1.64 7.02,3.2 10.64,4.63 -10.81,10.71 -22.38,18.66 -33.17,24.48 -7.53,4.05 -14.67,7.09 -20.9,9.35 -0.23,-0.2 -0.44,-0.43 -0.66,-0.63 -0.26,-0.24 -0.51,-0.48 -0.77,-0.74 3.17,-3.59 6.89,-7.81 10.84,-12.29 8.77,-9.92 18.56,-20.99 25.62,-29 v 0" /><path
         id="path252"
         style="fill:#ffffff;fill-opacity:1;fill-rule:evenodd;stroke:none"
         d="m 2058.96,3738.69 c -1.87,3.02 -3.22,4.76 -3.22,4.76 -7.16,8.81 -14.49,14.1 -24.68,14.1 -22.5,0 -40.75,-26.1 -40.75,-58.34 0,-32.25 18.25,-58.36 40.75,-58.36 17.99,0 34.53,18.01 40.16,41.35 0.47,2 0.9,4.01 1.23,6.08 0,0 -0.4,15.3 -4.79,30.58 -2.55,8.88 -6.12,15.64 -8.7,19.83 v 0" /><path
         id="path254"
         style="fill:#ffffff;fill-opacity:1;fill-rule:evenodd;stroke:none"
         d="m 2385.83,3815.1 c 0,31.04 -25.79,56.16 -57.61,56.16 -31.76,0 -57.55,-25.12 -57.55,-56.16 0,-30.97 25.79,-56.07 57.55,-56.07 31.82,0 57.61,25.1 57.61,56.07 v 0" /><path
         id="path256"
         style="fill:#ffffff;fill-opacity:1;fill-rule:evenodd;stroke:none"
         d="m 2410.82,3418.96 c 1.78,-4.98 4.16,-9.89 7.11,-14.65 11.32,0.39 24.4,2.67 33.81,9.66 1.25,0.92 2.48,1.89 3.58,3.01 0.36,0.33 0.68,0.72 1.02,1.09 1.47,1.51 2.87,3.11 4.2,4.77 1.64,2.05 3.16,4.18 4.6,6.39 0.5,0.79 1,1.56 1.49,2.36 2.67,4.55 4.89,9.41 6.66,14.46 0,0.02 0,0.02 0,0.03 1.4,4 2.52,8.13 3.3,12.34 0.09,0.55 0.16,1.1 0.25,1.67 1.12,6.95 1.41,14.1 0.74,21.21 -18,6.6 -36.42,5.97 -50.13,-2.24 -1.74,-1.03 -3.41,-2.18 -4.98,-3.47 -1.6,-1.29 -3.12,-2.69 -4.52,-4.25 -0.1,-0.09 -0.21,-0.18 -0.3,-0.27 -3.08,-3.47 -5.4,-7.39 -7.17,-11.59 -0.21,-0.51 -0.47,-1.01 -0.66,-1.56 -1.58,-4.21 -2.5,-8.69 -2.85,-13.33 -0.47,-6.69 0.27,-13.71 2.24,-20.75 0.46,-1.63 1.01,-3.26 1.61,-4.88 v 0" /><path
         id="path258"
         style="fill:#ffffff;fill-opacity:1;fill-rule:evenodd;stroke:none"
         d="m 2663.1,3368.62 c -0.23,0.88 -0.47,1.65 -0.73,2.39 -0.43,1.27 -0.85,2.42 -1.29,3.23 -0.33,0.65 -0.66,1.14 -0.96,1.44 -0.89,-0.85 -1.77,-1.63 -2.63,-2.43 -3.91,-3.65 -7.89,-6.83 -11.81,-9.53 -21.9,-14.98 -42.35,-16.28 -42.35,-16.28 0,0 0.52,-0.94 1.48,-2.48 0.49,-0.81 1.09,-1.78 1.83,-2.9 7.68,-11.89 27.49,-38.75 44.77,-30.4 15.72,7.61 15.95,34.46 12.98,51.01 -0.38,2.16 -0.8,4.2 -1.29,5.95 v 0" /><path
         id="path260"
         style="fill:#ffffff;fill-opacity:1;fill-rule:evenodd;stroke:none"
         d="m 2489.94,3426.03 c -0.7,0.56 -1.39,1.12 -2.11,1.61 0,0 -5.63,-11.51 -16.91,-22.44 -1.44,-1.4 -2.96,-2.77 -4.58,-4.12 -1.53,-1.27 -3.13,-2.53 -4.83,-3.72 -6.04,-4.24 -13.12,-7.84 -21.28,-9.82 0.7,-1.02 1.5,-1.99 2.29,-2.96 9.17,-11.02 24.89,-18.91 38.7,-20.68 1.43,-0.19 2.82,-0.29 4.2,-0.35 0.01,0 0.04,0 0.07,0 0.14,0 0.29,0 0.42,0 0.1,0 0.2,0 0.3,0 0.75,0 1.47,0 2.21,0.04 2.27,0.09 4.44,0.39 6.45,0.93 3.3,0.86 6.2,2.27 8.42,4.43 12.72,12.21 2.2,44.58 -13.35,57.08 v 0" /><path
         id="path262"
         style="fill:#ffffff;fill-opacity:1;fill-rule:evenodd;stroke:none"
         d="m 2439.95,2968.71 c -15.74,26.93 -39.12,55.66 -64.94,78.67 -6.29,-12.1 -17.87,-30.55 -34.92,-43.65 1.2,-1.68 2.36,-3.39 3.42,-5.14 3.74,-6.19 6.69,-12.72 8.6,-19.42 5.11,-6.61 10.45,-14.06 16.23,-22.11 6.13,-8.52 12.61,-17.54 19.27,-26.13 12.61,3.5 23.51,8.3 31.76,14.12 9.3,6.5 16.05,15.79 20.58,23.66 v 0" /><path
         id="path264"
         style="fill:#ffffff;fill-opacity:1;fill-rule:evenodd;stroke:none"
         d="m 2269.13,2965.37 c 2.77,3.36 5.08,7.09 7.09,10.97 0.38,0.74 0.82,1.44 1.18,2.18 1.86,4 3.26,8.26 4.33,12.6 0,0.01 0.01,0.02 0.01,0.02 0.85,3.5 1.52,7.03 1.84,10.62 0.05,0.52 0.02,1.03 0.05,1.52 0.39,5.94 -0.02,11.94 -1.15,17.84 -5.42,1.39 -10.87,2.05 -16.22,1.97 -1.54,-0.04 -3.08,-0.16 -4.59,-0.3 -0.9,-0.13 -1.82,-0.15 -2.71,-0.3 -0.94,-0.12 -1.85,-0.34 -2.75,-0.54 -8.19,-1.76 -15.07,-5.48 -20.23,-10.96 -0.99,-1.05 -1.94,-2.14 -2.81,-3.32 -0.12,-0.2 -0.22,-0.4 -0.36,-0.59 -0.77,-1.1 -1.5,-2.24 -2.15,-3.42 -1.07,-2.01 -1.88,-4.13 -2.55,-6.32 -0.15,-0.44 -0.31,-0.9 -0.43,-1.37 -0.99,-3.65 -1.39,-7.47 -1.29,-11.38 0.13,-5.66 1.33,-11.49 3.57,-17.24 0.5,-1.32 1.1,-2.64 1.72,-3.95 1.91,-4 4.3,-7.93 7.16,-11.69 10.67,1.4 23.13,4.96 30.29,13.66 v 0" /><path
         id="path266"
         style="fill:#ffffff;fill-opacity:1;fill-rule:evenodd;stroke:none"
         d="m 2444.12,2947.36 c -19.94,-24.18 -45.3,-28.3 -45.3,-28.3 0,0 1.17,-1.7 3.18,-4.22 7.41,-9.34 26.2,-30.26 40.02,-21.85 15.04,9.18 9.23,39.66 4.35,50.63 -0.81,1.84 -1.59,3.19 -2.25,3.74 v 0" /><path
         id="path268"
         style="fill:#ffffff;fill-opacity:1;fill-rule:evenodd;stroke:none"
         d="m 2297.52,2975.69 c -0.67,0.43 -1.33,0.87 -2.01,1.23 0,0 -10.53,-28.39 -36.65,-37.44 0.67,-0.78 1.39,-1.52 2.15,-2.27 9.45,-9.42 25.32,-14.94 37.69,-14.2 0.11,0.01 0.22,0.03 0.33,0.03 5.97,0.42 11.1,2.29 14.21,5.94 9.65,11.29 -1.73,37.45 -15.72,46.71 v 0" /><path
         id="path270"
         style="fill:#ffffff;fill-opacity:1;fill-rule:evenodd;stroke:none"
         d="m 1988.98,3241.96 c 0.03,1.03 0.03,2.06 0.09,3.1 0.2,0.44 0.41,0.97 0.62,1.42 0.84,1.92 1.69,3.9 2.57,5.9 0.37,0.83 0.72,1.69 1.09,2.56 -6.84,-15.76 -13.03,-29.36 -17.71,-38.4 0.24,-0.53 0.53,-1.05 0.77,-1.56 8.93,-19.17 22.08,-36.15 37.93,-49.88 -15.94,21 -25.4,46.94 -25.4,75.1 0,0.6 0.03,1.18 0.04,1.76 v 0" /><path
         id="path272"
         style="fill:#ffffff;fill-opacity:1;fill-rule:evenodd;stroke:none"
         d="m 2196.25,3377.15 c -3.04,3.64 -6.25,7.06 -9.54,10.37 -0.02,0.03 -0.06,0.06 -0.09,0.09 -0.55,0.35 -1.1,0.71 -1.64,1.04 -16.1,-2.21 -45.75,-8.15 -88.97,-24 7.31,1.25 14.82,1.94 22.51,1.94 25.87,0 49.96,-7.45 70.2,-20.19 17.13,-10.78 31.46,-25.41 41.76,-42.63 -5.2,26.89 -16.46,51.96 -34.23,73.38 v 0" /><path
         id="path274"
         style="fill:#ffffff;fill-opacity:1;fill-rule:evenodd;stroke:none"
         d="m 2026.74,3335.35 c -1.34,-3.33 -2.72,-6.71 -4.09,-10.14 0.62,0.66 1.27,1.31 1.9,1.97 5.65,5.77 11.81,11.05 18.46,15.72 -4.84,-2.19 -9.82,-4.48 -14.9,-6.89 -0.45,-0.2 -0.92,-0.45 -1.37,-0.66 v 0" /><path
         id="path276"
         style="fill:#ffffff;fill-opacity:1;fill-rule:evenodd;stroke:none"
         d="m 2125.71,3278.43 c -19.16,0 -34.69,-15.23 -34.69,-34 0,-18.8 15.53,-34.03 34.69,-34.03 19.15,0 34.7,15.23 34.7,34.03 0,18.77 -15.55,34 -34.7,34 v 0" /><path
         id="path278"
         style="fill:#ffffff;fill-opacity:1;fill-rule:evenodd;stroke:none"
         d="m 1865.89,3141.67 c -15.54,-5.95 -21.98,-26.86 -14.39,-46.73 7.59,-19.91 26.37,-31.17 41.9,-25.25 15.56,5.95 21.99,26.87 14.41,46.76 -7.6,19.87 -26.36,31.16 -41.92,25.22 v 0" /></g></g></svg>